G75*
%MOIN*%
%OFA0B0*%
%FSLAX25Y25*%
%IPPOS*%
%LPD*%
%AMOC8*
5,1,8,0,0,1.08239X$1,22.5*
%
%ADD10C,0.05000*%
%ADD11C,0.00000*%
%ADD12C,0.13398*%
%ADD13R,0.06706X0.06706*%
%ADD14R,0.07099X0.08674*%
%ADD15OC8,0.07343*%
%ADD16R,0.07099X0.04737*%
%ADD17R,0.07800X0.07800*%
%ADD18R,0.33792X0.42769*%
%ADD19R,0.12808X0.04800*%
%ADD20OC8,0.07000*%
%ADD21C,0.07000*%
%ADD22C,0.07400*%
%ADD23R,0.07099X0.07887*%
%ADD24R,0.09461X0.03162*%
%ADD25OC8,0.07400*%
%ADD26C,0.07737*%
%ADD27C,0.11824*%
%ADD28C,0.08200*%
%ADD29C,0.13800*%
%ADD30C,0.08500*%
%ADD31C,0.06162*%
%ADD32C,0.06300*%
D10*
X0006738Y0015563D02*
X0006738Y0354146D01*
X0018549Y0354146D01*
X0018549Y0373831D01*
X0006738Y0373831D01*
X0006738Y0385642D01*
X0006741Y0385927D01*
X0006752Y0386213D01*
X0006769Y0386498D01*
X0006793Y0386782D01*
X0006824Y0387066D01*
X0006862Y0387349D01*
X0006907Y0387630D01*
X0006958Y0387911D01*
X0007016Y0388191D01*
X0007081Y0388469D01*
X0007153Y0388745D01*
X0007231Y0389019D01*
X0007316Y0389292D01*
X0007408Y0389562D01*
X0007506Y0389830D01*
X0007610Y0390096D01*
X0007721Y0390359D01*
X0007838Y0390619D01*
X0007961Y0390877D01*
X0008091Y0391131D01*
X0008227Y0391382D01*
X0008368Y0391630D01*
X0008516Y0391874D01*
X0008669Y0392115D01*
X0008829Y0392351D01*
X0008994Y0392584D01*
X0009164Y0392813D01*
X0009340Y0393038D01*
X0009522Y0393258D01*
X0009708Y0393474D01*
X0009900Y0393685D01*
X0010097Y0393892D01*
X0010299Y0394094D01*
X0010506Y0394291D01*
X0010717Y0394483D01*
X0010933Y0394669D01*
X0011153Y0394851D01*
X0011378Y0395027D01*
X0011607Y0395197D01*
X0011840Y0395362D01*
X0012076Y0395522D01*
X0012317Y0395675D01*
X0012561Y0395823D01*
X0012809Y0395964D01*
X0013060Y0396100D01*
X0013314Y0396230D01*
X0013572Y0396353D01*
X0013832Y0396470D01*
X0014095Y0396581D01*
X0014361Y0396685D01*
X0014629Y0396783D01*
X0014899Y0396875D01*
X0015172Y0396960D01*
X0015446Y0397038D01*
X0015722Y0397110D01*
X0016000Y0397175D01*
X0016280Y0397233D01*
X0016561Y0397284D01*
X0016842Y0397329D01*
X0017125Y0397367D01*
X0017409Y0397398D01*
X0017693Y0397422D01*
X0017978Y0397439D01*
X0018264Y0397450D01*
X0018549Y0397453D01*
X0514612Y0397453D01*
X0514897Y0397450D01*
X0515183Y0397439D01*
X0515468Y0397422D01*
X0515752Y0397398D01*
X0516036Y0397367D01*
X0516319Y0397329D01*
X0516600Y0397284D01*
X0516881Y0397233D01*
X0517161Y0397175D01*
X0517439Y0397110D01*
X0517715Y0397038D01*
X0517989Y0396960D01*
X0518262Y0396875D01*
X0518532Y0396783D01*
X0518800Y0396685D01*
X0519066Y0396581D01*
X0519329Y0396470D01*
X0519589Y0396353D01*
X0519847Y0396230D01*
X0520101Y0396100D01*
X0520352Y0395964D01*
X0520600Y0395823D01*
X0520844Y0395675D01*
X0521085Y0395522D01*
X0521321Y0395362D01*
X0521554Y0395197D01*
X0521783Y0395027D01*
X0522008Y0394851D01*
X0522228Y0394669D01*
X0522444Y0394483D01*
X0522655Y0394291D01*
X0522862Y0394094D01*
X0523064Y0393892D01*
X0523261Y0393685D01*
X0523453Y0393474D01*
X0523639Y0393258D01*
X0523821Y0393038D01*
X0523997Y0392813D01*
X0524167Y0392584D01*
X0524332Y0392351D01*
X0524492Y0392115D01*
X0524645Y0391874D01*
X0524793Y0391630D01*
X0524934Y0391382D01*
X0525070Y0391131D01*
X0525200Y0390877D01*
X0525323Y0390619D01*
X0525440Y0390359D01*
X0525551Y0390096D01*
X0525655Y0389830D01*
X0525753Y0389562D01*
X0525845Y0389292D01*
X0525930Y0389019D01*
X0526008Y0388745D01*
X0526080Y0388469D01*
X0526145Y0388191D01*
X0526203Y0387911D01*
X0526254Y0387630D01*
X0526299Y0387349D01*
X0526337Y0387066D01*
X0526368Y0386782D01*
X0526392Y0386498D01*
X0526409Y0386213D01*
X0526420Y0385927D01*
X0526423Y0385642D01*
X0526423Y0373831D01*
X0514612Y0373831D01*
X0514612Y0354146D01*
X0526423Y0354146D01*
X0526423Y0015563D01*
X0526420Y0015278D01*
X0526409Y0014992D01*
X0526392Y0014707D01*
X0526368Y0014423D01*
X0526337Y0014139D01*
X0526299Y0013856D01*
X0526254Y0013575D01*
X0526203Y0013294D01*
X0526145Y0013014D01*
X0526080Y0012736D01*
X0526008Y0012460D01*
X0525930Y0012186D01*
X0525845Y0011913D01*
X0525753Y0011643D01*
X0525655Y0011375D01*
X0525551Y0011109D01*
X0525440Y0010846D01*
X0525323Y0010586D01*
X0525200Y0010328D01*
X0525070Y0010074D01*
X0524934Y0009823D01*
X0524793Y0009575D01*
X0524645Y0009331D01*
X0524492Y0009090D01*
X0524332Y0008854D01*
X0524167Y0008621D01*
X0523997Y0008392D01*
X0523821Y0008167D01*
X0523639Y0007947D01*
X0523453Y0007731D01*
X0523261Y0007520D01*
X0523064Y0007313D01*
X0522862Y0007111D01*
X0522655Y0006914D01*
X0522444Y0006722D01*
X0522228Y0006536D01*
X0522008Y0006354D01*
X0521783Y0006178D01*
X0521554Y0006008D01*
X0521321Y0005843D01*
X0521085Y0005683D01*
X0520844Y0005530D01*
X0520600Y0005382D01*
X0520352Y0005241D01*
X0520101Y0005105D01*
X0519847Y0004975D01*
X0519589Y0004852D01*
X0519329Y0004735D01*
X0519066Y0004624D01*
X0518800Y0004520D01*
X0518532Y0004422D01*
X0518262Y0004330D01*
X0517989Y0004245D01*
X0517715Y0004167D01*
X0517439Y0004095D01*
X0517161Y0004030D01*
X0516881Y0003972D01*
X0516600Y0003921D01*
X0516319Y0003876D01*
X0516036Y0003838D01*
X0515752Y0003807D01*
X0515468Y0003783D01*
X0515183Y0003766D01*
X0514897Y0003755D01*
X0514612Y0003752D01*
X0050045Y0003752D01*
X0050045Y0015563D01*
X0030360Y0015563D01*
X0030360Y0003752D01*
X0018549Y0003752D01*
X0018264Y0003755D01*
X0017978Y0003766D01*
X0017693Y0003783D01*
X0017409Y0003807D01*
X0017125Y0003838D01*
X0016842Y0003876D01*
X0016561Y0003921D01*
X0016280Y0003972D01*
X0016000Y0004030D01*
X0015722Y0004095D01*
X0015446Y0004167D01*
X0015172Y0004245D01*
X0014899Y0004330D01*
X0014629Y0004422D01*
X0014361Y0004520D01*
X0014095Y0004624D01*
X0013832Y0004735D01*
X0013572Y0004852D01*
X0013314Y0004975D01*
X0013060Y0005105D01*
X0012809Y0005241D01*
X0012561Y0005382D01*
X0012317Y0005530D01*
X0012076Y0005683D01*
X0011840Y0005843D01*
X0011607Y0006008D01*
X0011378Y0006178D01*
X0011153Y0006354D01*
X0010933Y0006536D01*
X0010717Y0006722D01*
X0010506Y0006914D01*
X0010299Y0007111D01*
X0010097Y0007313D01*
X0009900Y0007520D01*
X0009708Y0007731D01*
X0009522Y0007947D01*
X0009340Y0008167D01*
X0009164Y0008392D01*
X0008994Y0008621D01*
X0008829Y0008854D01*
X0008669Y0009090D01*
X0008516Y0009331D01*
X0008368Y0009575D01*
X0008227Y0009823D01*
X0008091Y0010074D01*
X0007961Y0010328D01*
X0007838Y0010586D01*
X0007721Y0010846D01*
X0007610Y0011109D01*
X0007506Y0011375D01*
X0007408Y0011643D01*
X0007316Y0011913D01*
X0007231Y0012186D01*
X0007153Y0012460D01*
X0007081Y0012736D01*
X0007016Y0013014D01*
X0006958Y0013294D01*
X0006907Y0013575D01*
X0006862Y0013856D01*
X0006824Y0014139D01*
X0006793Y0014423D01*
X0006769Y0014707D01*
X0006752Y0014992D01*
X0006741Y0015278D01*
X0006738Y0015563D01*
D11*
X0012250Y0015563D02*
X0012252Y0015721D01*
X0012258Y0015879D01*
X0012268Y0016037D01*
X0012282Y0016195D01*
X0012300Y0016352D01*
X0012321Y0016509D01*
X0012347Y0016665D01*
X0012377Y0016821D01*
X0012410Y0016976D01*
X0012448Y0017129D01*
X0012489Y0017282D01*
X0012534Y0017434D01*
X0012583Y0017585D01*
X0012636Y0017734D01*
X0012692Y0017882D01*
X0012752Y0018028D01*
X0012816Y0018173D01*
X0012884Y0018316D01*
X0012955Y0018458D01*
X0013029Y0018598D01*
X0013107Y0018735D01*
X0013189Y0018871D01*
X0013273Y0019005D01*
X0013362Y0019136D01*
X0013453Y0019265D01*
X0013548Y0019392D01*
X0013645Y0019517D01*
X0013746Y0019639D01*
X0013850Y0019758D01*
X0013957Y0019875D01*
X0014067Y0019989D01*
X0014180Y0020100D01*
X0014295Y0020209D01*
X0014413Y0020314D01*
X0014534Y0020416D01*
X0014657Y0020516D01*
X0014783Y0020612D01*
X0014911Y0020705D01*
X0015041Y0020795D01*
X0015174Y0020881D01*
X0015309Y0020965D01*
X0015445Y0021044D01*
X0015584Y0021121D01*
X0015725Y0021193D01*
X0015867Y0021263D01*
X0016011Y0021328D01*
X0016157Y0021390D01*
X0016304Y0021448D01*
X0016453Y0021503D01*
X0016603Y0021554D01*
X0016754Y0021601D01*
X0016906Y0021644D01*
X0017059Y0021683D01*
X0017214Y0021719D01*
X0017369Y0021750D01*
X0017525Y0021778D01*
X0017681Y0021802D01*
X0017838Y0021822D01*
X0017996Y0021838D01*
X0018153Y0021850D01*
X0018312Y0021858D01*
X0018470Y0021862D01*
X0018628Y0021862D01*
X0018786Y0021858D01*
X0018945Y0021850D01*
X0019102Y0021838D01*
X0019260Y0021822D01*
X0019417Y0021802D01*
X0019573Y0021778D01*
X0019729Y0021750D01*
X0019884Y0021719D01*
X0020039Y0021683D01*
X0020192Y0021644D01*
X0020344Y0021601D01*
X0020495Y0021554D01*
X0020645Y0021503D01*
X0020794Y0021448D01*
X0020941Y0021390D01*
X0021087Y0021328D01*
X0021231Y0021263D01*
X0021373Y0021193D01*
X0021514Y0021121D01*
X0021653Y0021044D01*
X0021789Y0020965D01*
X0021924Y0020881D01*
X0022057Y0020795D01*
X0022187Y0020705D01*
X0022315Y0020612D01*
X0022441Y0020516D01*
X0022564Y0020416D01*
X0022685Y0020314D01*
X0022803Y0020209D01*
X0022918Y0020100D01*
X0023031Y0019989D01*
X0023141Y0019875D01*
X0023248Y0019758D01*
X0023352Y0019639D01*
X0023453Y0019517D01*
X0023550Y0019392D01*
X0023645Y0019265D01*
X0023736Y0019136D01*
X0023825Y0019005D01*
X0023909Y0018871D01*
X0023991Y0018735D01*
X0024069Y0018598D01*
X0024143Y0018458D01*
X0024214Y0018316D01*
X0024282Y0018173D01*
X0024346Y0018028D01*
X0024406Y0017882D01*
X0024462Y0017734D01*
X0024515Y0017585D01*
X0024564Y0017434D01*
X0024609Y0017282D01*
X0024650Y0017129D01*
X0024688Y0016976D01*
X0024721Y0016821D01*
X0024751Y0016665D01*
X0024777Y0016509D01*
X0024798Y0016352D01*
X0024816Y0016195D01*
X0024830Y0016037D01*
X0024840Y0015879D01*
X0024846Y0015721D01*
X0024848Y0015563D01*
X0024846Y0015405D01*
X0024840Y0015247D01*
X0024830Y0015089D01*
X0024816Y0014931D01*
X0024798Y0014774D01*
X0024777Y0014617D01*
X0024751Y0014461D01*
X0024721Y0014305D01*
X0024688Y0014150D01*
X0024650Y0013997D01*
X0024609Y0013844D01*
X0024564Y0013692D01*
X0024515Y0013541D01*
X0024462Y0013392D01*
X0024406Y0013244D01*
X0024346Y0013098D01*
X0024282Y0012953D01*
X0024214Y0012810D01*
X0024143Y0012668D01*
X0024069Y0012528D01*
X0023991Y0012391D01*
X0023909Y0012255D01*
X0023825Y0012121D01*
X0023736Y0011990D01*
X0023645Y0011861D01*
X0023550Y0011734D01*
X0023453Y0011609D01*
X0023352Y0011487D01*
X0023248Y0011368D01*
X0023141Y0011251D01*
X0023031Y0011137D01*
X0022918Y0011026D01*
X0022803Y0010917D01*
X0022685Y0010812D01*
X0022564Y0010710D01*
X0022441Y0010610D01*
X0022315Y0010514D01*
X0022187Y0010421D01*
X0022057Y0010331D01*
X0021924Y0010245D01*
X0021789Y0010161D01*
X0021653Y0010082D01*
X0021514Y0010005D01*
X0021373Y0009933D01*
X0021231Y0009863D01*
X0021087Y0009798D01*
X0020941Y0009736D01*
X0020794Y0009678D01*
X0020645Y0009623D01*
X0020495Y0009572D01*
X0020344Y0009525D01*
X0020192Y0009482D01*
X0020039Y0009443D01*
X0019884Y0009407D01*
X0019729Y0009376D01*
X0019573Y0009348D01*
X0019417Y0009324D01*
X0019260Y0009304D01*
X0019102Y0009288D01*
X0018945Y0009276D01*
X0018786Y0009268D01*
X0018628Y0009264D01*
X0018470Y0009264D01*
X0018312Y0009268D01*
X0018153Y0009276D01*
X0017996Y0009288D01*
X0017838Y0009304D01*
X0017681Y0009324D01*
X0017525Y0009348D01*
X0017369Y0009376D01*
X0017214Y0009407D01*
X0017059Y0009443D01*
X0016906Y0009482D01*
X0016754Y0009525D01*
X0016603Y0009572D01*
X0016453Y0009623D01*
X0016304Y0009678D01*
X0016157Y0009736D01*
X0016011Y0009798D01*
X0015867Y0009863D01*
X0015725Y0009933D01*
X0015584Y0010005D01*
X0015445Y0010082D01*
X0015309Y0010161D01*
X0015174Y0010245D01*
X0015041Y0010331D01*
X0014911Y0010421D01*
X0014783Y0010514D01*
X0014657Y0010610D01*
X0014534Y0010710D01*
X0014413Y0010812D01*
X0014295Y0010917D01*
X0014180Y0011026D01*
X0014067Y0011137D01*
X0013957Y0011251D01*
X0013850Y0011368D01*
X0013746Y0011487D01*
X0013645Y0011609D01*
X0013548Y0011734D01*
X0013453Y0011861D01*
X0013362Y0011990D01*
X0013273Y0012121D01*
X0013189Y0012255D01*
X0013107Y0012391D01*
X0013029Y0012528D01*
X0012955Y0012668D01*
X0012884Y0012810D01*
X0012816Y0012953D01*
X0012752Y0013098D01*
X0012692Y0013244D01*
X0012636Y0013392D01*
X0012583Y0013541D01*
X0012534Y0013692D01*
X0012489Y0013844D01*
X0012448Y0013997D01*
X0012410Y0014150D01*
X0012377Y0014305D01*
X0012347Y0014461D01*
X0012321Y0014617D01*
X0012300Y0014774D01*
X0012282Y0014931D01*
X0012268Y0015089D01*
X0012258Y0015247D01*
X0012252Y0015405D01*
X0012250Y0015563D01*
X0070124Y0019500D02*
X0070126Y0019648D01*
X0070132Y0019796D01*
X0070142Y0019944D01*
X0070156Y0020091D01*
X0070174Y0020238D01*
X0070195Y0020384D01*
X0070221Y0020530D01*
X0070251Y0020675D01*
X0070284Y0020819D01*
X0070322Y0020962D01*
X0070363Y0021104D01*
X0070408Y0021245D01*
X0070456Y0021385D01*
X0070509Y0021524D01*
X0070565Y0021661D01*
X0070625Y0021796D01*
X0070688Y0021930D01*
X0070755Y0022062D01*
X0070826Y0022192D01*
X0070900Y0022320D01*
X0070977Y0022446D01*
X0071058Y0022570D01*
X0071142Y0022692D01*
X0071229Y0022811D01*
X0071320Y0022928D01*
X0071414Y0023043D01*
X0071510Y0023155D01*
X0071610Y0023265D01*
X0071712Y0023371D01*
X0071818Y0023475D01*
X0071926Y0023576D01*
X0072037Y0023674D01*
X0072150Y0023770D01*
X0072266Y0023862D01*
X0072384Y0023951D01*
X0072505Y0024036D01*
X0072628Y0024119D01*
X0072753Y0024198D01*
X0072880Y0024274D01*
X0073009Y0024346D01*
X0073140Y0024415D01*
X0073273Y0024480D01*
X0073408Y0024541D01*
X0073544Y0024599D01*
X0073681Y0024654D01*
X0073820Y0024704D01*
X0073961Y0024751D01*
X0074102Y0024794D01*
X0074245Y0024834D01*
X0074389Y0024869D01*
X0074533Y0024901D01*
X0074679Y0024928D01*
X0074825Y0024952D01*
X0074972Y0024972D01*
X0075119Y0024988D01*
X0075266Y0025000D01*
X0075414Y0025008D01*
X0075562Y0025012D01*
X0075710Y0025012D01*
X0075858Y0025008D01*
X0076006Y0025000D01*
X0076153Y0024988D01*
X0076300Y0024972D01*
X0076447Y0024952D01*
X0076593Y0024928D01*
X0076739Y0024901D01*
X0076883Y0024869D01*
X0077027Y0024834D01*
X0077170Y0024794D01*
X0077311Y0024751D01*
X0077452Y0024704D01*
X0077591Y0024654D01*
X0077728Y0024599D01*
X0077864Y0024541D01*
X0077999Y0024480D01*
X0078132Y0024415D01*
X0078263Y0024346D01*
X0078392Y0024274D01*
X0078519Y0024198D01*
X0078644Y0024119D01*
X0078767Y0024036D01*
X0078888Y0023951D01*
X0079006Y0023862D01*
X0079122Y0023770D01*
X0079235Y0023674D01*
X0079346Y0023576D01*
X0079454Y0023475D01*
X0079560Y0023371D01*
X0079662Y0023265D01*
X0079762Y0023155D01*
X0079858Y0023043D01*
X0079952Y0022928D01*
X0080043Y0022811D01*
X0080130Y0022692D01*
X0080214Y0022570D01*
X0080295Y0022446D01*
X0080372Y0022320D01*
X0080446Y0022192D01*
X0080517Y0022062D01*
X0080584Y0021930D01*
X0080647Y0021796D01*
X0080707Y0021661D01*
X0080763Y0021524D01*
X0080816Y0021385D01*
X0080864Y0021245D01*
X0080909Y0021104D01*
X0080950Y0020962D01*
X0080988Y0020819D01*
X0081021Y0020675D01*
X0081051Y0020530D01*
X0081077Y0020384D01*
X0081098Y0020238D01*
X0081116Y0020091D01*
X0081130Y0019944D01*
X0081140Y0019796D01*
X0081146Y0019648D01*
X0081148Y0019500D01*
X0081146Y0019352D01*
X0081140Y0019204D01*
X0081130Y0019056D01*
X0081116Y0018909D01*
X0081098Y0018762D01*
X0081077Y0018616D01*
X0081051Y0018470D01*
X0081021Y0018325D01*
X0080988Y0018181D01*
X0080950Y0018038D01*
X0080909Y0017896D01*
X0080864Y0017755D01*
X0080816Y0017615D01*
X0080763Y0017476D01*
X0080707Y0017339D01*
X0080647Y0017204D01*
X0080584Y0017070D01*
X0080517Y0016938D01*
X0080446Y0016808D01*
X0080372Y0016680D01*
X0080295Y0016554D01*
X0080214Y0016430D01*
X0080130Y0016308D01*
X0080043Y0016189D01*
X0079952Y0016072D01*
X0079858Y0015957D01*
X0079762Y0015845D01*
X0079662Y0015735D01*
X0079560Y0015629D01*
X0079454Y0015525D01*
X0079346Y0015424D01*
X0079235Y0015326D01*
X0079122Y0015230D01*
X0079006Y0015138D01*
X0078888Y0015049D01*
X0078767Y0014964D01*
X0078644Y0014881D01*
X0078519Y0014802D01*
X0078392Y0014726D01*
X0078263Y0014654D01*
X0078132Y0014585D01*
X0077999Y0014520D01*
X0077864Y0014459D01*
X0077728Y0014401D01*
X0077591Y0014346D01*
X0077452Y0014296D01*
X0077311Y0014249D01*
X0077170Y0014206D01*
X0077027Y0014166D01*
X0076883Y0014131D01*
X0076739Y0014099D01*
X0076593Y0014072D01*
X0076447Y0014048D01*
X0076300Y0014028D01*
X0076153Y0014012D01*
X0076006Y0014000D01*
X0075858Y0013992D01*
X0075710Y0013988D01*
X0075562Y0013988D01*
X0075414Y0013992D01*
X0075266Y0014000D01*
X0075119Y0014012D01*
X0074972Y0014028D01*
X0074825Y0014048D01*
X0074679Y0014072D01*
X0074533Y0014099D01*
X0074389Y0014131D01*
X0074245Y0014166D01*
X0074102Y0014206D01*
X0073961Y0014249D01*
X0073820Y0014296D01*
X0073681Y0014346D01*
X0073544Y0014401D01*
X0073408Y0014459D01*
X0073273Y0014520D01*
X0073140Y0014585D01*
X0073009Y0014654D01*
X0072880Y0014726D01*
X0072753Y0014802D01*
X0072628Y0014881D01*
X0072505Y0014964D01*
X0072384Y0015049D01*
X0072266Y0015138D01*
X0072150Y0015230D01*
X0072037Y0015326D01*
X0071926Y0015424D01*
X0071818Y0015525D01*
X0071712Y0015629D01*
X0071610Y0015735D01*
X0071510Y0015845D01*
X0071414Y0015957D01*
X0071320Y0016072D01*
X0071229Y0016189D01*
X0071142Y0016308D01*
X0071058Y0016430D01*
X0070977Y0016554D01*
X0070900Y0016680D01*
X0070826Y0016808D01*
X0070755Y0016938D01*
X0070688Y0017070D01*
X0070625Y0017204D01*
X0070565Y0017339D01*
X0070509Y0017476D01*
X0070456Y0017615D01*
X0070408Y0017755D01*
X0070363Y0017896D01*
X0070322Y0018038D01*
X0070284Y0018181D01*
X0070251Y0018325D01*
X0070221Y0018470D01*
X0070195Y0018616D01*
X0070174Y0018762D01*
X0070156Y0018909D01*
X0070142Y0019056D01*
X0070132Y0019204D01*
X0070126Y0019352D01*
X0070124Y0019500D01*
X0070124Y0098240D02*
X0070126Y0098388D01*
X0070132Y0098536D01*
X0070142Y0098684D01*
X0070156Y0098831D01*
X0070174Y0098978D01*
X0070195Y0099124D01*
X0070221Y0099270D01*
X0070251Y0099415D01*
X0070284Y0099559D01*
X0070322Y0099702D01*
X0070363Y0099844D01*
X0070408Y0099985D01*
X0070456Y0100125D01*
X0070509Y0100264D01*
X0070565Y0100401D01*
X0070625Y0100536D01*
X0070688Y0100670D01*
X0070755Y0100802D01*
X0070826Y0100932D01*
X0070900Y0101060D01*
X0070977Y0101186D01*
X0071058Y0101310D01*
X0071142Y0101432D01*
X0071229Y0101551D01*
X0071320Y0101668D01*
X0071414Y0101783D01*
X0071510Y0101895D01*
X0071610Y0102005D01*
X0071712Y0102111D01*
X0071818Y0102215D01*
X0071926Y0102316D01*
X0072037Y0102414D01*
X0072150Y0102510D01*
X0072266Y0102602D01*
X0072384Y0102691D01*
X0072505Y0102776D01*
X0072628Y0102859D01*
X0072753Y0102938D01*
X0072880Y0103014D01*
X0073009Y0103086D01*
X0073140Y0103155D01*
X0073273Y0103220D01*
X0073408Y0103281D01*
X0073544Y0103339D01*
X0073681Y0103394D01*
X0073820Y0103444D01*
X0073961Y0103491D01*
X0074102Y0103534D01*
X0074245Y0103574D01*
X0074389Y0103609D01*
X0074533Y0103641D01*
X0074679Y0103668D01*
X0074825Y0103692D01*
X0074972Y0103712D01*
X0075119Y0103728D01*
X0075266Y0103740D01*
X0075414Y0103748D01*
X0075562Y0103752D01*
X0075710Y0103752D01*
X0075858Y0103748D01*
X0076006Y0103740D01*
X0076153Y0103728D01*
X0076300Y0103712D01*
X0076447Y0103692D01*
X0076593Y0103668D01*
X0076739Y0103641D01*
X0076883Y0103609D01*
X0077027Y0103574D01*
X0077170Y0103534D01*
X0077311Y0103491D01*
X0077452Y0103444D01*
X0077591Y0103394D01*
X0077728Y0103339D01*
X0077864Y0103281D01*
X0077999Y0103220D01*
X0078132Y0103155D01*
X0078263Y0103086D01*
X0078392Y0103014D01*
X0078519Y0102938D01*
X0078644Y0102859D01*
X0078767Y0102776D01*
X0078888Y0102691D01*
X0079006Y0102602D01*
X0079122Y0102510D01*
X0079235Y0102414D01*
X0079346Y0102316D01*
X0079454Y0102215D01*
X0079560Y0102111D01*
X0079662Y0102005D01*
X0079762Y0101895D01*
X0079858Y0101783D01*
X0079952Y0101668D01*
X0080043Y0101551D01*
X0080130Y0101432D01*
X0080214Y0101310D01*
X0080295Y0101186D01*
X0080372Y0101060D01*
X0080446Y0100932D01*
X0080517Y0100802D01*
X0080584Y0100670D01*
X0080647Y0100536D01*
X0080707Y0100401D01*
X0080763Y0100264D01*
X0080816Y0100125D01*
X0080864Y0099985D01*
X0080909Y0099844D01*
X0080950Y0099702D01*
X0080988Y0099559D01*
X0081021Y0099415D01*
X0081051Y0099270D01*
X0081077Y0099124D01*
X0081098Y0098978D01*
X0081116Y0098831D01*
X0081130Y0098684D01*
X0081140Y0098536D01*
X0081146Y0098388D01*
X0081148Y0098240D01*
X0081146Y0098092D01*
X0081140Y0097944D01*
X0081130Y0097796D01*
X0081116Y0097649D01*
X0081098Y0097502D01*
X0081077Y0097356D01*
X0081051Y0097210D01*
X0081021Y0097065D01*
X0080988Y0096921D01*
X0080950Y0096778D01*
X0080909Y0096636D01*
X0080864Y0096495D01*
X0080816Y0096355D01*
X0080763Y0096216D01*
X0080707Y0096079D01*
X0080647Y0095944D01*
X0080584Y0095810D01*
X0080517Y0095678D01*
X0080446Y0095548D01*
X0080372Y0095420D01*
X0080295Y0095294D01*
X0080214Y0095170D01*
X0080130Y0095048D01*
X0080043Y0094929D01*
X0079952Y0094812D01*
X0079858Y0094697D01*
X0079762Y0094585D01*
X0079662Y0094475D01*
X0079560Y0094369D01*
X0079454Y0094265D01*
X0079346Y0094164D01*
X0079235Y0094066D01*
X0079122Y0093970D01*
X0079006Y0093878D01*
X0078888Y0093789D01*
X0078767Y0093704D01*
X0078644Y0093621D01*
X0078519Y0093542D01*
X0078392Y0093466D01*
X0078263Y0093394D01*
X0078132Y0093325D01*
X0077999Y0093260D01*
X0077864Y0093199D01*
X0077728Y0093141D01*
X0077591Y0093086D01*
X0077452Y0093036D01*
X0077311Y0092989D01*
X0077170Y0092946D01*
X0077027Y0092906D01*
X0076883Y0092871D01*
X0076739Y0092839D01*
X0076593Y0092812D01*
X0076447Y0092788D01*
X0076300Y0092768D01*
X0076153Y0092752D01*
X0076006Y0092740D01*
X0075858Y0092732D01*
X0075710Y0092728D01*
X0075562Y0092728D01*
X0075414Y0092732D01*
X0075266Y0092740D01*
X0075119Y0092752D01*
X0074972Y0092768D01*
X0074825Y0092788D01*
X0074679Y0092812D01*
X0074533Y0092839D01*
X0074389Y0092871D01*
X0074245Y0092906D01*
X0074102Y0092946D01*
X0073961Y0092989D01*
X0073820Y0093036D01*
X0073681Y0093086D01*
X0073544Y0093141D01*
X0073408Y0093199D01*
X0073273Y0093260D01*
X0073140Y0093325D01*
X0073009Y0093394D01*
X0072880Y0093466D01*
X0072753Y0093542D01*
X0072628Y0093621D01*
X0072505Y0093704D01*
X0072384Y0093789D01*
X0072266Y0093878D01*
X0072150Y0093970D01*
X0072037Y0094066D01*
X0071926Y0094164D01*
X0071818Y0094265D01*
X0071712Y0094369D01*
X0071610Y0094475D01*
X0071510Y0094585D01*
X0071414Y0094697D01*
X0071320Y0094812D01*
X0071229Y0094929D01*
X0071142Y0095048D01*
X0071058Y0095170D01*
X0070977Y0095294D01*
X0070900Y0095420D01*
X0070826Y0095548D01*
X0070755Y0095678D01*
X0070688Y0095810D01*
X0070625Y0095944D01*
X0070565Y0096079D01*
X0070509Y0096216D01*
X0070456Y0096355D01*
X0070408Y0096495D01*
X0070363Y0096636D01*
X0070322Y0096778D01*
X0070284Y0096921D01*
X0070251Y0097065D01*
X0070221Y0097210D01*
X0070195Y0097356D01*
X0070174Y0097502D01*
X0070156Y0097649D01*
X0070142Y0097796D01*
X0070132Y0097944D01*
X0070126Y0098092D01*
X0070124Y0098240D01*
X0180360Y0098240D02*
X0180362Y0098388D01*
X0180368Y0098536D01*
X0180378Y0098684D01*
X0180392Y0098831D01*
X0180410Y0098978D01*
X0180431Y0099124D01*
X0180457Y0099270D01*
X0180487Y0099415D01*
X0180520Y0099559D01*
X0180558Y0099702D01*
X0180599Y0099844D01*
X0180644Y0099985D01*
X0180692Y0100125D01*
X0180745Y0100264D01*
X0180801Y0100401D01*
X0180861Y0100536D01*
X0180924Y0100670D01*
X0180991Y0100802D01*
X0181062Y0100932D01*
X0181136Y0101060D01*
X0181213Y0101186D01*
X0181294Y0101310D01*
X0181378Y0101432D01*
X0181465Y0101551D01*
X0181556Y0101668D01*
X0181650Y0101783D01*
X0181746Y0101895D01*
X0181846Y0102005D01*
X0181948Y0102111D01*
X0182054Y0102215D01*
X0182162Y0102316D01*
X0182273Y0102414D01*
X0182386Y0102510D01*
X0182502Y0102602D01*
X0182620Y0102691D01*
X0182741Y0102776D01*
X0182864Y0102859D01*
X0182989Y0102938D01*
X0183116Y0103014D01*
X0183245Y0103086D01*
X0183376Y0103155D01*
X0183509Y0103220D01*
X0183644Y0103281D01*
X0183780Y0103339D01*
X0183917Y0103394D01*
X0184056Y0103444D01*
X0184197Y0103491D01*
X0184338Y0103534D01*
X0184481Y0103574D01*
X0184625Y0103609D01*
X0184769Y0103641D01*
X0184915Y0103668D01*
X0185061Y0103692D01*
X0185208Y0103712D01*
X0185355Y0103728D01*
X0185502Y0103740D01*
X0185650Y0103748D01*
X0185798Y0103752D01*
X0185946Y0103752D01*
X0186094Y0103748D01*
X0186242Y0103740D01*
X0186389Y0103728D01*
X0186536Y0103712D01*
X0186683Y0103692D01*
X0186829Y0103668D01*
X0186975Y0103641D01*
X0187119Y0103609D01*
X0187263Y0103574D01*
X0187406Y0103534D01*
X0187547Y0103491D01*
X0187688Y0103444D01*
X0187827Y0103394D01*
X0187964Y0103339D01*
X0188100Y0103281D01*
X0188235Y0103220D01*
X0188368Y0103155D01*
X0188499Y0103086D01*
X0188628Y0103014D01*
X0188755Y0102938D01*
X0188880Y0102859D01*
X0189003Y0102776D01*
X0189124Y0102691D01*
X0189242Y0102602D01*
X0189358Y0102510D01*
X0189471Y0102414D01*
X0189582Y0102316D01*
X0189690Y0102215D01*
X0189796Y0102111D01*
X0189898Y0102005D01*
X0189998Y0101895D01*
X0190094Y0101783D01*
X0190188Y0101668D01*
X0190279Y0101551D01*
X0190366Y0101432D01*
X0190450Y0101310D01*
X0190531Y0101186D01*
X0190608Y0101060D01*
X0190682Y0100932D01*
X0190753Y0100802D01*
X0190820Y0100670D01*
X0190883Y0100536D01*
X0190943Y0100401D01*
X0190999Y0100264D01*
X0191052Y0100125D01*
X0191100Y0099985D01*
X0191145Y0099844D01*
X0191186Y0099702D01*
X0191224Y0099559D01*
X0191257Y0099415D01*
X0191287Y0099270D01*
X0191313Y0099124D01*
X0191334Y0098978D01*
X0191352Y0098831D01*
X0191366Y0098684D01*
X0191376Y0098536D01*
X0191382Y0098388D01*
X0191384Y0098240D01*
X0191382Y0098092D01*
X0191376Y0097944D01*
X0191366Y0097796D01*
X0191352Y0097649D01*
X0191334Y0097502D01*
X0191313Y0097356D01*
X0191287Y0097210D01*
X0191257Y0097065D01*
X0191224Y0096921D01*
X0191186Y0096778D01*
X0191145Y0096636D01*
X0191100Y0096495D01*
X0191052Y0096355D01*
X0190999Y0096216D01*
X0190943Y0096079D01*
X0190883Y0095944D01*
X0190820Y0095810D01*
X0190753Y0095678D01*
X0190682Y0095548D01*
X0190608Y0095420D01*
X0190531Y0095294D01*
X0190450Y0095170D01*
X0190366Y0095048D01*
X0190279Y0094929D01*
X0190188Y0094812D01*
X0190094Y0094697D01*
X0189998Y0094585D01*
X0189898Y0094475D01*
X0189796Y0094369D01*
X0189690Y0094265D01*
X0189582Y0094164D01*
X0189471Y0094066D01*
X0189358Y0093970D01*
X0189242Y0093878D01*
X0189124Y0093789D01*
X0189003Y0093704D01*
X0188880Y0093621D01*
X0188755Y0093542D01*
X0188628Y0093466D01*
X0188499Y0093394D01*
X0188368Y0093325D01*
X0188235Y0093260D01*
X0188100Y0093199D01*
X0187964Y0093141D01*
X0187827Y0093086D01*
X0187688Y0093036D01*
X0187547Y0092989D01*
X0187406Y0092946D01*
X0187263Y0092906D01*
X0187119Y0092871D01*
X0186975Y0092839D01*
X0186829Y0092812D01*
X0186683Y0092788D01*
X0186536Y0092768D01*
X0186389Y0092752D01*
X0186242Y0092740D01*
X0186094Y0092732D01*
X0185946Y0092728D01*
X0185798Y0092728D01*
X0185650Y0092732D01*
X0185502Y0092740D01*
X0185355Y0092752D01*
X0185208Y0092768D01*
X0185061Y0092788D01*
X0184915Y0092812D01*
X0184769Y0092839D01*
X0184625Y0092871D01*
X0184481Y0092906D01*
X0184338Y0092946D01*
X0184197Y0092989D01*
X0184056Y0093036D01*
X0183917Y0093086D01*
X0183780Y0093141D01*
X0183644Y0093199D01*
X0183509Y0093260D01*
X0183376Y0093325D01*
X0183245Y0093394D01*
X0183116Y0093466D01*
X0182989Y0093542D01*
X0182864Y0093621D01*
X0182741Y0093704D01*
X0182620Y0093789D01*
X0182502Y0093878D01*
X0182386Y0093970D01*
X0182273Y0094066D01*
X0182162Y0094164D01*
X0182054Y0094265D01*
X0181948Y0094369D01*
X0181846Y0094475D01*
X0181746Y0094585D01*
X0181650Y0094697D01*
X0181556Y0094812D01*
X0181465Y0094929D01*
X0181378Y0095048D01*
X0181294Y0095170D01*
X0181213Y0095294D01*
X0181136Y0095420D01*
X0181062Y0095548D01*
X0180991Y0095678D01*
X0180924Y0095810D01*
X0180861Y0095944D01*
X0180801Y0096079D01*
X0180745Y0096216D01*
X0180692Y0096355D01*
X0180644Y0096495D01*
X0180599Y0096636D01*
X0180558Y0096778D01*
X0180520Y0096921D01*
X0180487Y0097065D01*
X0180457Y0097210D01*
X0180431Y0097356D01*
X0180410Y0097502D01*
X0180392Y0097649D01*
X0180378Y0097796D01*
X0180368Y0097944D01*
X0180362Y0098092D01*
X0180360Y0098240D01*
X0180360Y0019500D02*
X0180362Y0019648D01*
X0180368Y0019796D01*
X0180378Y0019944D01*
X0180392Y0020091D01*
X0180410Y0020238D01*
X0180431Y0020384D01*
X0180457Y0020530D01*
X0180487Y0020675D01*
X0180520Y0020819D01*
X0180558Y0020962D01*
X0180599Y0021104D01*
X0180644Y0021245D01*
X0180692Y0021385D01*
X0180745Y0021524D01*
X0180801Y0021661D01*
X0180861Y0021796D01*
X0180924Y0021930D01*
X0180991Y0022062D01*
X0181062Y0022192D01*
X0181136Y0022320D01*
X0181213Y0022446D01*
X0181294Y0022570D01*
X0181378Y0022692D01*
X0181465Y0022811D01*
X0181556Y0022928D01*
X0181650Y0023043D01*
X0181746Y0023155D01*
X0181846Y0023265D01*
X0181948Y0023371D01*
X0182054Y0023475D01*
X0182162Y0023576D01*
X0182273Y0023674D01*
X0182386Y0023770D01*
X0182502Y0023862D01*
X0182620Y0023951D01*
X0182741Y0024036D01*
X0182864Y0024119D01*
X0182989Y0024198D01*
X0183116Y0024274D01*
X0183245Y0024346D01*
X0183376Y0024415D01*
X0183509Y0024480D01*
X0183644Y0024541D01*
X0183780Y0024599D01*
X0183917Y0024654D01*
X0184056Y0024704D01*
X0184197Y0024751D01*
X0184338Y0024794D01*
X0184481Y0024834D01*
X0184625Y0024869D01*
X0184769Y0024901D01*
X0184915Y0024928D01*
X0185061Y0024952D01*
X0185208Y0024972D01*
X0185355Y0024988D01*
X0185502Y0025000D01*
X0185650Y0025008D01*
X0185798Y0025012D01*
X0185946Y0025012D01*
X0186094Y0025008D01*
X0186242Y0025000D01*
X0186389Y0024988D01*
X0186536Y0024972D01*
X0186683Y0024952D01*
X0186829Y0024928D01*
X0186975Y0024901D01*
X0187119Y0024869D01*
X0187263Y0024834D01*
X0187406Y0024794D01*
X0187547Y0024751D01*
X0187688Y0024704D01*
X0187827Y0024654D01*
X0187964Y0024599D01*
X0188100Y0024541D01*
X0188235Y0024480D01*
X0188368Y0024415D01*
X0188499Y0024346D01*
X0188628Y0024274D01*
X0188755Y0024198D01*
X0188880Y0024119D01*
X0189003Y0024036D01*
X0189124Y0023951D01*
X0189242Y0023862D01*
X0189358Y0023770D01*
X0189471Y0023674D01*
X0189582Y0023576D01*
X0189690Y0023475D01*
X0189796Y0023371D01*
X0189898Y0023265D01*
X0189998Y0023155D01*
X0190094Y0023043D01*
X0190188Y0022928D01*
X0190279Y0022811D01*
X0190366Y0022692D01*
X0190450Y0022570D01*
X0190531Y0022446D01*
X0190608Y0022320D01*
X0190682Y0022192D01*
X0190753Y0022062D01*
X0190820Y0021930D01*
X0190883Y0021796D01*
X0190943Y0021661D01*
X0190999Y0021524D01*
X0191052Y0021385D01*
X0191100Y0021245D01*
X0191145Y0021104D01*
X0191186Y0020962D01*
X0191224Y0020819D01*
X0191257Y0020675D01*
X0191287Y0020530D01*
X0191313Y0020384D01*
X0191334Y0020238D01*
X0191352Y0020091D01*
X0191366Y0019944D01*
X0191376Y0019796D01*
X0191382Y0019648D01*
X0191384Y0019500D01*
X0191382Y0019352D01*
X0191376Y0019204D01*
X0191366Y0019056D01*
X0191352Y0018909D01*
X0191334Y0018762D01*
X0191313Y0018616D01*
X0191287Y0018470D01*
X0191257Y0018325D01*
X0191224Y0018181D01*
X0191186Y0018038D01*
X0191145Y0017896D01*
X0191100Y0017755D01*
X0191052Y0017615D01*
X0190999Y0017476D01*
X0190943Y0017339D01*
X0190883Y0017204D01*
X0190820Y0017070D01*
X0190753Y0016938D01*
X0190682Y0016808D01*
X0190608Y0016680D01*
X0190531Y0016554D01*
X0190450Y0016430D01*
X0190366Y0016308D01*
X0190279Y0016189D01*
X0190188Y0016072D01*
X0190094Y0015957D01*
X0189998Y0015845D01*
X0189898Y0015735D01*
X0189796Y0015629D01*
X0189690Y0015525D01*
X0189582Y0015424D01*
X0189471Y0015326D01*
X0189358Y0015230D01*
X0189242Y0015138D01*
X0189124Y0015049D01*
X0189003Y0014964D01*
X0188880Y0014881D01*
X0188755Y0014802D01*
X0188628Y0014726D01*
X0188499Y0014654D01*
X0188368Y0014585D01*
X0188235Y0014520D01*
X0188100Y0014459D01*
X0187964Y0014401D01*
X0187827Y0014346D01*
X0187688Y0014296D01*
X0187547Y0014249D01*
X0187406Y0014206D01*
X0187263Y0014166D01*
X0187119Y0014131D01*
X0186975Y0014099D01*
X0186829Y0014072D01*
X0186683Y0014048D01*
X0186536Y0014028D01*
X0186389Y0014012D01*
X0186242Y0014000D01*
X0186094Y0013992D01*
X0185946Y0013988D01*
X0185798Y0013988D01*
X0185650Y0013992D01*
X0185502Y0014000D01*
X0185355Y0014012D01*
X0185208Y0014028D01*
X0185061Y0014048D01*
X0184915Y0014072D01*
X0184769Y0014099D01*
X0184625Y0014131D01*
X0184481Y0014166D01*
X0184338Y0014206D01*
X0184197Y0014249D01*
X0184056Y0014296D01*
X0183917Y0014346D01*
X0183780Y0014401D01*
X0183644Y0014459D01*
X0183509Y0014520D01*
X0183376Y0014585D01*
X0183245Y0014654D01*
X0183116Y0014726D01*
X0182989Y0014802D01*
X0182864Y0014881D01*
X0182741Y0014964D01*
X0182620Y0015049D01*
X0182502Y0015138D01*
X0182386Y0015230D01*
X0182273Y0015326D01*
X0182162Y0015424D01*
X0182054Y0015525D01*
X0181948Y0015629D01*
X0181846Y0015735D01*
X0181746Y0015845D01*
X0181650Y0015957D01*
X0181556Y0016072D01*
X0181465Y0016189D01*
X0181378Y0016308D01*
X0181294Y0016430D01*
X0181213Y0016554D01*
X0181136Y0016680D01*
X0181062Y0016808D01*
X0180991Y0016938D01*
X0180924Y0017070D01*
X0180861Y0017204D01*
X0180801Y0017339D01*
X0180745Y0017476D01*
X0180692Y0017615D01*
X0180644Y0017755D01*
X0180599Y0017896D01*
X0180558Y0018038D01*
X0180520Y0018181D01*
X0180487Y0018325D01*
X0180457Y0018470D01*
X0180431Y0018616D01*
X0180410Y0018762D01*
X0180392Y0018909D01*
X0180378Y0019056D01*
X0180368Y0019204D01*
X0180362Y0019352D01*
X0180360Y0019500D01*
X0413825Y0200602D02*
X0413827Y0200760D01*
X0413833Y0200918D01*
X0413843Y0201076D01*
X0413857Y0201234D01*
X0413875Y0201391D01*
X0413896Y0201548D01*
X0413922Y0201704D01*
X0413952Y0201860D01*
X0413985Y0202015D01*
X0414023Y0202168D01*
X0414064Y0202321D01*
X0414109Y0202473D01*
X0414158Y0202624D01*
X0414211Y0202773D01*
X0414267Y0202921D01*
X0414327Y0203067D01*
X0414391Y0203212D01*
X0414459Y0203355D01*
X0414530Y0203497D01*
X0414604Y0203637D01*
X0414682Y0203774D01*
X0414764Y0203910D01*
X0414848Y0204044D01*
X0414937Y0204175D01*
X0415028Y0204304D01*
X0415123Y0204431D01*
X0415220Y0204556D01*
X0415321Y0204678D01*
X0415425Y0204797D01*
X0415532Y0204914D01*
X0415642Y0205028D01*
X0415755Y0205139D01*
X0415870Y0205248D01*
X0415988Y0205353D01*
X0416109Y0205455D01*
X0416232Y0205555D01*
X0416358Y0205651D01*
X0416486Y0205744D01*
X0416616Y0205834D01*
X0416749Y0205920D01*
X0416884Y0206004D01*
X0417020Y0206083D01*
X0417159Y0206160D01*
X0417300Y0206232D01*
X0417442Y0206302D01*
X0417586Y0206367D01*
X0417732Y0206429D01*
X0417879Y0206487D01*
X0418028Y0206542D01*
X0418178Y0206593D01*
X0418329Y0206640D01*
X0418481Y0206683D01*
X0418634Y0206722D01*
X0418789Y0206758D01*
X0418944Y0206789D01*
X0419100Y0206817D01*
X0419256Y0206841D01*
X0419413Y0206861D01*
X0419571Y0206877D01*
X0419728Y0206889D01*
X0419887Y0206897D01*
X0420045Y0206901D01*
X0420203Y0206901D01*
X0420361Y0206897D01*
X0420520Y0206889D01*
X0420677Y0206877D01*
X0420835Y0206861D01*
X0420992Y0206841D01*
X0421148Y0206817D01*
X0421304Y0206789D01*
X0421459Y0206758D01*
X0421614Y0206722D01*
X0421767Y0206683D01*
X0421919Y0206640D01*
X0422070Y0206593D01*
X0422220Y0206542D01*
X0422369Y0206487D01*
X0422516Y0206429D01*
X0422662Y0206367D01*
X0422806Y0206302D01*
X0422948Y0206232D01*
X0423089Y0206160D01*
X0423228Y0206083D01*
X0423364Y0206004D01*
X0423499Y0205920D01*
X0423632Y0205834D01*
X0423762Y0205744D01*
X0423890Y0205651D01*
X0424016Y0205555D01*
X0424139Y0205455D01*
X0424260Y0205353D01*
X0424378Y0205248D01*
X0424493Y0205139D01*
X0424606Y0205028D01*
X0424716Y0204914D01*
X0424823Y0204797D01*
X0424927Y0204678D01*
X0425028Y0204556D01*
X0425125Y0204431D01*
X0425220Y0204304D01*
X0425311Y0204175D01*
X0425400Y0204044D01*
X0425484Y0203910D01*
X0425566Y0203774D01*
X0425644Y0203637D01*
X0425718Y0203497D01*
X0425789Y0203355D01*
X0425857Y0203212D01*
X0425921Y0203067D01*
X0425981Y0202921D01*
X0426037Y0202773D01*
X0426090Y0202624D01*
X0426139Y0202473D01*
X0426184Y0202321D01*
X0426225Y0202168D01*
X0426263Y0202015D01*
X0426296Y0201860D01*
X0426326Y0201704D01*
X0426352Y0201548D01*
X0426373Y0201391D01*
X0426391Y0201234D01*
X0426405Y0201076D01*
X0426415Y0200918D01*
X0426421Y0200760D01*
X0426423Y0200602D01*
X0426421Y0200444D01*
X0426415Y0200286D01*
X0426405Y0200128D01*
X0426391Y0199970D01*
X0426373Y0199813D01*
X0426352Y0199656D01*
X0426326Y0199500D01*
X0426296Y0199344D01*
X0426263Y0199189D01*
X0426225Y0199036D01*
X0426184Y0198883D01*
X0426139Y0198731D01*
X0426090Y0198580D01*
X0426037Y0198431D01*
X0425981Y0198283D01*
X0425921Y0198137D01*
X0425857Y0197992D01*
X0425789Y0197849D01*
X0425718Y0197707D01*
X0425644Y0197567D01*
X0425566Y0197430D01*
X0425484Y0197294D01*
X0425400Y0197160D01*
X0425311Y0197029D01*
X0425220Y0196900D01*
X0425125Y0196773D01*
X0425028Y0196648D01*
X0424927Y0196526D01*
X0424823Y0196407D01*
X0424716Y0196290D01*
X0424606Y0196176D01*
X0424493Y0196065D01*
X0424378Y0195956D01*
X0424260Y0195851D01*
X0424139Y0195749D01*
X0424016Y0195649D01*
X0423890Y0195553D01*
X0423762Y0195460D01*
X0423632Y0195370D01*
X0423499Y0195284D01*
X0423364Y0195200D01*
X0423228Y0195121D01*
X0423089Y0195044D01*
X0422948Y0194972D01*
X0422806Y0194902D01*
X0422662Y0194837D01*
X0422516Y0194775D01*
X0422369Y0194717D01*
X0422220Y0194662D01*
X0422070Y0194611D01*
X0421919Y0194564D01*
X0421767Y0194521D01*
X0421614Y0194482D01*
X0421459Y0194446D01*
X0421304Y0194415D01*
X0421148Y0194387D01*
X0420992Y0194363D01*
X0420835Y0194343D01*
X0420677Y0194327D01*
X0420520Y0194315D01*
X0420361Y0194307D01*
X0420203Y0194303D01*
X0420045Y0194303D01*
X0419887Y0194307D01*
X0419728Y0194315D01*
X0419571Y0194327D01*
X0419413Y0194343D01*
X0419256Y0194363D01*
X0419100Y0194387D01*
X0418944Y0194415D01*
X0418789Y0194446D01*
X0418634Y0194482D01*
X0418481Y0194521D01*
X0418329Y0194564D01*
X0418178Y0194611D01*
X0418028Y0194662D01*
X0417879Y0194717D01*
X0417732Y0194775D01*
X0417586Y0194837D01*
X0417442Y0194902D01*
X0417300Y0194972D01*
X0417159Y0195044D01*
X0417020Y0195121D01*
X0416884Y0195200D01*
X0416749Y0195284D01*
X0416616Y0195370D01*
X0416486Y0195460D01*
X0416358Y0195553D01*
X0416232Y0195649D01*
X0416109Y0195749D01*
X0415988Y0195851D01*
X0415870Y0195956D01*
X0415755Y0196065D01*
X0415642Y0196176D01*
X0415532Y0196290D01*
X0415425Y0196407D01*
X0415321Y0196526D01*
X0415220Y0196648D01*
X0415123Y0196773D01*
X0415028Y0196900D01*
X0414937Y0197029D01*
X0414848Y0197160D01*
X0414764Y0197294D01*
X0414682Y0197430D01*
X0414604Y0197567D01*
X0414530Y0197707D01*
X0414459Y0197849D01*
X0414391Y0197992D01*
X0414327Y0198137D01*
X0414267Y0198283D01*
X0414211Y0198431D01*
X0414158Y0198580D01*
X0414109Y0198731D01*
X0414064Y0198883D01*
X0414023Y0199036D01*
X0413985Y0199189D01*
X0413952Y0199344D01*
X0413922Y0199500D01*
X0413896Y0199656D01*
X0413875Y0199813D01*
X0413857Y0199970D01*
X0413843Y0200128D01*
X0413833Y0200286D01*
X0413827Y0200444D01*
X0413825Y0200602D01*
X0508313Y0200602D02*
X0508315Y0200760D01*
X0508321Y0200918D01*
X0508331Y0201076D01*
X0508345Y0201234D01*
X0508363Y0201391D01*
X0508384Y0201548D01*
X0508410Y0201704D01*
X0508440Y0201860D01*
X0508473Y0202015D01*
X0508511Y0202168D01*
X0508552Y0202321D01*
X0508597Y0202473D01*
X0508646Y0202624D01*
X0508699Y0202773D01*
X0508755Y0202921D01*
X0508815Y0203067D01*
X0508879Y0203212D01*
X0508947Y0203355D01*
X0509018Y0203497D01*
X0509092Y0203637D01*
X0509170Y0203774D01*
X0509252Y0203910D01*
X0509336Y0204044D01*
X0509425Y0204175D01*
X0509516Y0204304D01*
X0509611Y0204431D01*
X0509708Y0204556D01*
X0509809Y0204678D01*
X0509913Y0204797D01*
X0510020Y0204914D01*
X0510130Y0205028D01*
X0510243Y0205139D01*
X0510358Y0205248D01*
X0510476Y0205353D01*
X0510597Y0205455D01*
X0510720Y0205555D01*
X0510846Y0205651D01*
X0510974Y0205744D01*
X0511104Y0205834D01*
X0511237Y0205920D01*
X0511372Y0206004D01*
X0511508Y0206083D01*
X0511647Y0206160D01*
X0511788Y0206232D01*
X0511930Y0206302D01*
X0512074Y0206367D01*
X0512220Y0206429D01*
X0512367Y0206487D01*
X0512516Y0206542D01*
X0512666Y0206593D01*
X0512817Y0206640D01*
X0512969Y0206683D01*
X0513122Y0206722D01*
X0513277Y0206758D01*
X0513432Y0206789D01*
X0513588Y0206817D01*
X0513744Y0206841D01*
X0513901Y0206861D01*
X0514059Y0206877D01*
X0514216Y0206889D01*
X0514375Y0206897D01*
X0514533Y0206901D01*
X0514691Y0206901D01*
X0514849Y0206897D01*
X0515008Y0206889D01*
X0515165Y0206877D01*
X0515323Y0206861D01*
X0515480Y0206841D01*
X0515636Y0206817D01*
X0515792Y0206789D01*
X0515947Y0206758D01*
X0516102Y0206722D01*
X0516255Y0206683D01*
X0516407Y0206640D01*
X0516558Y0206593D01*
X0516708Y0206542D01*
X0516857Y0206487D01*
X0517004Y0206429D01*
X0517150Y0206367D01*
X0517294Y0206302D01*
X0517436Y0206232D01*
X0517577Y0206160D01*
X0517716Y0206083D01*
X0517852Y0206004D01*
X0517987Y0205920D01*
X0518120Y0205834D01*
X0518250Y0205744D01*
X0518378Y0205651D01*
X0518504Y0205555D01*
X0518627Y0205455D01*
X0518748Y0205353D01*
X0518866Y0205248D01*
X0518981Y0205139D01*
X0519094Y0205028D01*
X0519204Y0204914D01*
X0519311Y0204797D01*
X0519415Y0204678D01*
X0519516Y0204556D01*
X0519613Y0204431D01*
X0519708Y0204304D01*
X0519799Y0204175D01*
X0519888Y0204044D01*
X0519972Y0203910D01*
X0520054Y0203774D01*
X0520132Y0203637D01*
X0520206Y0203497D01*
X0520277Y0203355D01*
X0520345Y0203212D01*
X0520409Y0203067D01*
X0520469Y0202921D01*
X0520525Y0202773D01*
X0520578Y0202624D01*
X0520627Y0202473D01*
X0520672Y0202321D01*
X0520713Y0202168D01*
X0520751Y0202015D01*
X0520784Y0201860D01*
X0520814Y0201704D01*
X0520840Y0201548D01*
X0520861Y0201391D01*
X0520879Y0201234D01*
X0520893Y0201076D01*
X0520903Y0200918D01*
X0520909Y0200760D01*
X0520911Y0200602D01*
X0520909Y0200444D01*
X0520903Y0200286D01*
X0520893Y0200128D01*
X0520879Y0199970D01*
X0520861Y0199813D01*
X0520840Y0199656D01*
X0520814Y0199500D01*
X0520784Y0199344D01*
X0520751Y0199189D01*
X0520713Y0199036D01*
X0520672Y0198883D01*
X0520627Y0198731D01*
X0520578Y0198580D01*
X0520525Y0198431D01*
X0520469Y0198283D01*
X0520409Y0198137D01*
X0520345Y0197992D01*
X0520277Y0197849D01*
X0520206Y0197707D01*
X0520132Y0197567D01*
X0520054Y0197430D01*
X0519972Y0197294D01*
X0519888Y0197160D01*
X0519799Y0197029D01*
X0519708Y0196900D01*
X0519613Y0196773D01*
X0519516Y0196648D01*
X0519415Y0196526D01*
X0519311Y0196407D01*
X0519204Y0196290D01*
X0519094Y0196176D01*
X0518981Y0196065D01*
X0518866Y0195956D01*
X0518748Y0195851D01*
X0518627Y0195749D01*
X0518504Y0195649D01*
X0518378Y0195553D01*
X0518250Y0195460D01*
X0518120Y0195370D01*
X0517987Y0195284D01*
X0517852Y0195200D01*
X0517716Y0195121D01*
X0517577Y0195044D01*
X0517436Y0194972D01*
X0517294Y0194902D01*
X0517150Y0194837D01*
X0517004Y0194775D01*
X0516857Y0194717D01*
X0516708Y0194662D01*
X0516558Y0194611D01*
X0516407Y0194564D01*
X0516255Y0194521D01*
X0516102Y0194482D01*
X0515947Y0194446D01*
X0515792Y0194415D01*
X0515636Y0194387D01*
X0515480Y0194363D01*
X0515323Y0194343D01*
X0515165Y0194327D01*
X0515008Y0194315D01*
X0514849Y0194307D01*
X0514691Y0194303D01*
X0514533Y0194303D01*
X0514375Y0194307D01*
X0514216Y0194315D01*
X0514059Y0194327D01*
X0513901Y0194343D01*
X0513744Y0194363D01*
X0513588Y0194387D01*
X0513432Y0194415D01*
X0513277Y0194446D01*
X0513122Y0194482D01*
X0512969Y0194521D01*
X0512817Y0194564D01*
X0512666Y0194611D01*
X0512516Y0194662D01*
X0512367Y0194717D01*
X0512220Y0194775D01*
X0512074Y0194837D01*
X0511930Y0194902D01*
X0511788Y0194972D01*
X0511647Y0195044D01*
X0511508Y0195121D01*
X0511372Y0195200D01*
X0511237Y0195284D01*
X0511104Y0195370D01*
X0510974Y0195460D01*
X0510846Y0195553D01*
X0510720Y0195649D01*
X0510597Y0195749D01*
X0510476Y0195851D01*
X0510358Y0195956D01*
X0510243Y0196065D01*
X0510130Y0196176D01*
X0510020Y0196290D01*
X0509913Y0196407D01*
X0509809Y0196526D01*
X0509708Y0196648D01*
X0509611Y0196773D01*
X0509516Y0196900D01*
X0509425Y0197029D01*
X0509336Y0197160D01*
X0509252Y0197294D01*
X0509170Y0197430D01*
X0509092Y0197567D01*
X0509018Y0197707D01*
X0508947Y0197849D01*
X0508879Y0197992D01*
X0508815Y0198137D01*
X0508755Y0198283D01*
X0508699Y0198431D01*
X0508646Y0198580D01*
X0508597Y0198731D01*
X0508552Y0198883D01*
X0508511Y0199036D01*
X0508473Y0199189D01*
X0508440Y0199344D01*
X0508410Y0199500D01*
X0508384Y0199656D01*
X0508363Y0199813D01*
X0508345Y0199970D01*
X0508331Y0200128D01*
X0508321Y0200286D01*
X0508315Y0200444D01*
X0508313Y0200602D01*
X0456931Y0022744D02*
X0456933Y0022905D01*
X0456939Y0023065D01*
X0456949Y0023226D01*
X0456963Y0023386D01*
X0456981Y0023546D01*
X0457002Y0023705D01*
X0457028Y0023864D01*
X0457058Y0024022D01*
X0457091Y0024179D01*
X0457129Y0024336D01*
X0457170Y0024491D01*
X0457215Y0024645D01*
X0457264Y0024798D01*
X0457317Y0024950D01*
X0457373Y0025101D01*
X0457434Y0025250D01*
X0457497Y0025398D01*
X0457565Y0025544D01*
X0457636Y0025688D01*
X0457710Y0025830D01*
X0457788Y0025971D01*
X0457870Y0026109D01*
X0457955Y0026246D01*
X0458043Y0026380D01*
X0458135Y0026512D01*
X0458230Y0026642D01*
X0458328Y0026770D01*
X0458429Y0026895D01*
X0458533Y0027017D01*
X0458640Y0027137D01*
X0458750Y0027254D01*
X0458863Y0027369D01*
X0458979Y0027480D01*
X0459098Y0027589D01*
X0459219Y0027694D01*
X0459343Y0027797D01*
X0459469Y0027897D01*
X0459597Y0027993D01*
X0459728Y0028086D01*
X0459862Y0028176D01*
X0459997Y0028263D01*
X0460135Y0028346D01*
X0460274Y0028426D01*
X0460416Y0028502D01*
X0460559Y0028575D01*
X0460704Y0028644D01*
X0460851Y0028710D01*
X0460999Y0028772D01*
X0461149Y0028830D01*
X0461300Y0028885D01*
X0461453Y0028936D01*
X0461607Y0028983D01*
X0461762Y0029026D01*
X0461918Y0029065D01*
X0462074Y0029101D01*
X0462232Y0029132D01*
X0462390Y0029160D01*
X0462549Y0029184D01*
X0462709Y0029204D01*
X0462869Y0029220D01*
X0463029Y0029232D01*
X0463190Y0029240D01*
X0463351Y0029244D01*
X0463511Y0029244D01*
X0463672Y0029240D01*
X0463833Y0029232D01*
X0463993Y0029220D01*
X0464153Y0029204D01*
X0464313Y0029184D01*
X0464472Y0029160D01*
X0464630Y0029132D01*
X0464788Y0029101D01*
X0464944Y0029065D01*
X0465100Y0029026D01*
X0465255Y0028983D01*
X0465409Y0028936D01*
X0465562Y0028885D01*
X0465713Y0028830D01*
X0465863Y0028772D01*
X0466011Y0028710D01*
X0466158Y0028644D01*
X0466303Y0028575D01*
X0466446Y0028502D01*
X0466588Y0028426D01*
X0466727Y0028346D01*
X0466865Y0028263D01*
X0467000Y0028176D01*
X0467134Y0028086D01*
X0467265Y0027993D01*
X0467393Y0027897D01*
X0467519Y0027797D01*
X0467643Y0027694D01*
X0467764Y0027589D01*
X0467883Y0027480D01*
X0467999Y0027369D01*
X0468112Y0027254D01*
X0468222Y0027137D01*
X0468329Y0027017D01*
X0468433Y0026895D01*
X0468534Y0026770D01*
X0468632Y0026642D01*
X0468727Y0026512D01*
X0468819Y0026380D01*
X0468907Y0026246D01*
X0468992Y0026109D01*
X0469074Y0025971D01*
X0469152Y0025830D01*
X0469226Y0025688D01*
X0469297Y0025544D01*
X0469365Y0025398D01*
X0469428Y0025250D01*
X0469489Y0025101D01*
X0469545Y0024950D01*
X0469598Y0024798D01*
X0469647Y0024645D01*
X0469692Y0024491D01*
X0469733Y0024336D01*
X0469771Y0024179D01*
X0469804Y0024022D01*
X0469834Y0023864D01*
X0469860Y0023705D01*
X0469881Y0023546D01*
X0469899Y0023386D01*
X0469913Y0023226D01*
X0469923Y0023065D01*
X0469929Y0022905D01*
X0469931Y0022744D01*
X0469929Y0022583D01*
X0469923Y0022423D01*
X0469913Y0022262D01*
X0469899Y0022102D01*
X0469881Y0021942D01*
X0469860Y0021783D01*
X0469834Y0021624D01*
X0469804Y0021466D01*
X0469771Y0021309D01*
X0469733Y0021152D01*
X0469692Y0020997D01*
X0469647Y0020843D01*
X0469598Y0020690D01*
X0469545Y0020538D01*
X0469489Y0020387D01*
X0469428Y0020238D01*
X0469365Y0020090D01*
X0469297Y0019944D01*
X0469226Y0019800D01*
X0469152Y0019658D01*
X0469074Y0019517D01*
X0468992Y0019379D01*
X0468907Y0019242D01*
X0468819Y0019108D01*
X0468727Y0018976D01*
X0468632Y0018846D01*
X0468534Y0018718D01*
X0468433Y0018593D01*
X0468329Y0018471D01*
X0468222Y0018351D01*
X0468112Y0018234D01*
X0467999Y0018119D01*
X0467883Y0018008D01*
X0467764Y0017899D01*
X0467643Y0017794D01*
X0467519Y0017691D01*
X0467393Y0017591D01*
X0467265Y0017495D01*
X0467134Y0017402D01*
X0467000Y0017312D01*
X0466865Y0017225D01*
X0466727Y0017142D01*
X0466588Y0017062D01*
X0466446Y0016986D01*
X0466303Y0016913D01*
X0466158Y0016844D01*
X0466011Y0016778D01*
X0465863Y0016716D01*
X0465713Y0016658D01*
X0465562Y0016603D01*
X0465409Y0016552D01*
X0465255Y0016505D01*
X0465100Y0016462D01*
X0464944Y0016423D01*
X0464788Y0016387D01*
X0464630Y0016356D01*
X0464472Y0016328D01*
X0464313Y0016304D01*
X0464153Y0016284D01*
X0463993Y0016268D01*
X0463833Y0016256D01*
X0463672Y0016248D01*
X0463511Y0016244D01*
X0463351Y0016244D01*
X0463190Y0016248D01*
X0463029Y0016256D01*
X0462869Y0016268D01*
X0462709Y0016284D01*
X0462549Y0016304D01*
X0462390Y0016328D01*
X0462232Y0016356D01*
X0462074Y0016387D01*
X0461918Y0016423D01*
X0461762Y0016462D01*
X0461607Y0016505D01*
X0461453Y0016552D01*
X0461300Y0016603D01*
X0461149Y0016658D01*
X0460999Y0016716D01*
X0460851Y0016778D01*
X0460704Y0016844D01*
X0460559Y0016913D01*
X0460416Y0016986D01*
X0460274Y0017062D01*
X0460135Y0017142D01*
X0459997Y0017225D01*
X0459862Y0017312D01*
X0459728Y0017402D01*
X0459597Y0017495D01*
X0459469Y0017591D01*
X0459343Y0017691D01*
X0459219Y0017794D01*
X0459098Y0017899D01*
X0458979Y0018008D01*
X0458863Y0018119D01*
X0458750Y0018234D01*
X0458640Y0018351D01*
X0458533Y0018471D01*
X0458429Y0018593D01*
X0458328Y0018718D01*
X0458230Y0018846D01*
X0458135Y0018976D01*
X0458043Y0019108D01*
X0457955Y0019242D01*
X0457870Y0019379D01*
X0457788Y0019517D01*
X0457710Y0019658D01*
X0457636Y0019800D01*
X0457565Y0019944D01*
X0457497Y0020090D01*
X0457434Y0020238D01*
X0457373Y0020387D01*
X0457317Y0020538D01*
X0457264Y0020690D01*
X0457215Y0020843D01*
X0457170Y0020997D01*
X0457129Y0021152D01*
X0457091Y0021309D01*
X0457058Y0021466D01*
X0457028Y0021624D01*
X0457002Y0021783D01*
X0456981Y0021942D01*
X0456963Y0022102D01*
X0456949Y0022262D01*
X0456939Y0022423D01*
X0456933Y0022583D01*
X0456931Y0022744D01*
X0508313Y0015563D02*
X0508315Y0015721D01*
X0508321Y0015879D01*
X0508331Y0016037D01*
X0508345Y0016195D01*
X0508363Y0016352D01*
X0508384Y0016509D01*
X0508410Y0016665D01*
X0508440Y0016821D01*
X0508473Y0016976D01*
X0508511Y0017129D01*
X0508552Y0017282D01*
X0508597Y0017434D01*
X0508646Y0017585D01*
X0508699Y0017734D01*
X0508755Y0017882D01*
X0508815Y0018028D01*
X0508879Y0018173D01*
X0508947Y0018316D01*
X0509018Y0018458D01*
X0509092Y0018598D01*
X0509170Y0018735D01*
X0509252Y0018871D01*
X0509336Y0019005D01*
X0509425Y0019136D01*
X0509516Y0019265D01*
X0509611Y0019392D01*
X0509708Y0019517D01*
X0509809Y0019639D01*
X0509913Y0019758D01*
X0510020Y0019875D01*
X0510130Y0019989D01*
X0510243Y0020100D01*
X0510358Y0020209D01*
X0510476Y0020314D01*
X0510597Y0020416D01*
X0510720Y0020516D01*
X0510846Y0020612D01*
X0510974Y0020705D01*
X0511104Y0020795D01*
X0511237Y0020881D01*
X0511372Y0020965D01*
X0511508Y0021044D01*
X0511647Y0021121D01*
X0511788Y0021193D01*
X0511930Y0021263D01*
X0512074Y0021328D01*
X0512220Y0021390D01*
X0512367Y0021448D01*
X0512516Y0021503D01*
X0512666Y0021554D01*
X0512817Y0021601D01*
X0512969Y0021644D01*
X0513122Y0021683D01*
X0513277Y0021719D01*
X0513432Y0021750D01*
X0513588Y0021778D01*
X0513744Y0021802D01*
X0513901Y0021822D01*
X0514059Y0021838D01*
X0514216Y0021850D01*
X0514375Y0021858D01*
X0514533Y0021862D01*
X0514691Y0021862D01*
X0514849Y0021858D01*
X0515008Y0021850D01*
X0515165Y0021838D01*
X0515323Y0021822D01*
X0515480Y0021802D01*
X0515636Y0021778D01*
X0515792Y0021750D01*
X0515947Y0021719D01*
X0516102Y0021683D01*
X0516255Y0021644D01*
X0516407Y0021601D01*
X0516558Y0021554D01*
X0516708Y0021503D01*
X0516857Y0021448D01*
X0517004Y0021390D01*
X0517150Y0021328D01*
X0517294Y0021263D01*
X0517436Y0021193D01*
X0517577Y0021121D01*
X0517716Y0021044D01*
X0517852Y0020965D01*
X0517987Y0020881D01*
X0518120Y0020795D01*
X0518250Y0020705D01*
X0518378Y0020612D01*
X0518504Y0020516D01*
X0518627Y0020416D01*
X0518748Y0020314D01*
X0518866Y0020209D01*
X0518981Y0020100D01*
X0519094Y0019989D01*
X0519204Y0019875D01*
X0519311Y0019758D01*
X0519415Y0019639D01*
X0519516Y0019517D01*
X0519613Y0019392D01*
X0519708Y0019265D01*
X0519799Y0019136D01*
X0519888Y0019005D01*
X0519972Y0018871D01*
X0520054Y0018735D01*
X0520132Y0018598D01*
X0520206Y0018458D01*
X0520277Y0018316D01*
X0520345Y0018173D01*
X0520409Y0018028D01*
X0520469Y0017882D01*
X0520525Y0017734D01*
X0520578Y0017585D01*
X0520627Y0017434D01*
X0520672Y0017282D01*
X0520713Y0017129D01*
X0520751Y0016976D01*
X0520784Y0016821D01*
X0520814Y0016665D01*
X0520840Y0016509D01*
X0520861Y0016352D01*
X0520879Y0016195D01*
X0520893Y0016037D01*
X0520903Y0015879D01*
X0520909Y0015721D01*
X0520911Y0015563D01*
X0520909Y0015405D01*
X0520903Y0015247D01*
X0520893Y0015089D01*
X0520879Y0014931D01*
X0520861Y0014774D01*
X0520840Y0014617D01*
X0520814Y0014461D01*
X0520784Y0014305D01*
X0520751Y0014150D01*
X0520713Y0013997D01*
X0520672Y0013844D01*
X0520627Y0013692D01*
X0520578Y0013541D01*
X0520525Y0013392D01*
X0520469Y0013244D01*
X0520409Y0013098D01*
X0520345Y0012953D01*
X0520277Y0012810D01*
X0520206Y0012668D01*
X0520132Y0012528D01*
X0520054Y0012391D01*
X0519972Y0012255D01*
X0519888Y0012121D01*
X0519799Y0011990D01*
X0519708Y0011861D01*
X0519613Y0011734D01*
X0519516Y0011609D01*
X0519415Y0011487D01*
X0519311Y0011368D01*
X0519204Y0011251D01*
X0519094Y0011137D01*
X0518981Y0011026D01*
X0518866Y0010917D01*
X0518748Y0010812D01*
X0518627Y0010710D01*
X0518504Y0010610D01*
X0518378Y0010514D01*
X0518250Y0010421D01*
X0518120Y0010331D01*
X0517987Y0010245D01*
X0517852Y0010161D01*
X0517716Y0010082D01*
X0517577Y0010005D01*
X0517436Y0009933D01*
X0517294Y0009863D01*
X0517150Y0009798D01*
X0517004Y0009736D01*
X0516857Y0009678D01*
X0516708Y0009623D01*
X0516558Y0009572D01*
X0516407Y0009525D01*
X0516255Y0009482D01*
X0516102Y0009443D01*
X0515947Y0009407D01*
X0515792Y0009376D01*
X0515636Y0009348D01*
X0515480Y0009324D01*
X0515323Y0009304D01*
X0515165Y0009288D01*
X0515008Y0009276D01*
X0514849Y0009268D01*
X0514691Y0009264D01*
X0514533Y0009264D01*
X0514375Y0009268D01*
X0514216Y0009276D01*
X0514059Y0009288D01*
X0513901Y0009304D01*
X0513744Y0009324D01*
X0513588Y0009348D01*
X0513432Y0009376D01*
X0513277Y0009407D01*
X0513122Y0009443D01*
X0512969Y0009482D01*
X0512817Y0009525D01*
X0512666Y0009572D01*
X0512516Y0009623D01*
X0512367Y0009678D01*
X0512220Y0009736D01*
X0512074Y0009798D01*
X0511930Y0009863D01*
X0511788Y0009933D01*
X0511647Y0010005D01*
X0511508Y0010082D01*
X0511372Y0010161D01*
X0511237Y0010245D01*
X0511104Y0010331D01*
X0510974Y0010421D01*
X0510846Y0010514D01*
X0510720Y0010610D01*
X0510597Y0010710D01*
X0510476Y0010812D01*
X0510358Y0010917D01*
X0510243Y0011026D01*
X0510130Y0011137D01*
X0510020Y0011251D01*
X0509913Y0011368D01*
X0509809Y0011487D01*
X0509708Y0011609D01*
X0509611Y0011734D01*
X0509516Y0011861D01*
X0509425Y0011990D01*
X0509336Y0012121D01*
X0509252Y0012255D01*
X0509170Y0012391D01*
X0509092Y0012528D01*
X0509018Y0012668D01*
X0508947Y0012810D01*
X0508879Y0012953D01*
X0508815Y0013098D01*
X0508755Y0013244D01*
X0508699Y0013392D01*
X0508646Y0013541D01*
X0508597Y0013692D01*
X0508552Y0013844D01*
X0508511Y0013997D01*
X0508473Y0014150D01*
X0508440Y0014305D01*
X0508410Y0014461D01*
X0508384Y0014617D01*
X0508363Y0014774D01*
X0508345Y0014931D01*
X0508331Y0015089D01*
X0508321Y0015247D01*
X0508315Y0015405D01*
X0508313Y0015563D01*
X0508313Y0385642D02*
X0508315Y0385800D01*
X0508321Y0385958D01*
X0508331Y0386116D01*
X0508345Y0386274D01*
X0508363Y0386431D01*
X0508384Y0386588D01*
X0508410Y0386744D01*
X0508440Y0386900D01*
X0508473Y0387055D01*
X0508511Y0387208D01*
X0508552Y0387361D01*
X0508597Y0387513D01*
X0508646Y0387664D01*
X0508699Y0387813D01*
X0508755Y0387961D01*
X0508815Y0388107D01*
X0508879Y0388252D01*
X0508947Y0388395D01*
X0509018Y0388537D01*
X0509092Y0388677D01*
X0509170Y0388814D01*
X0509252Y0388950D01*
X0509336Y0389084D01*
X0509425Y0389215D01*
X0509516Y0389344D01*
X0509611Y0389471D01*
X0509708Y0389596D01*
X0509809Y0389718D01*
X0509913Y0389837D01*
X0510020Y0389954D01*
X0510130Y0390068D01*
X0510243Y0390179D01*
X0510358Y0390288D01*
X0510476Y0390393D01*
X0510597Y0390495D01*
X0510720Y0390595D01*
X0510846Y0390691D01*
X0510974Y0390784D01*
X0511104Y0390874D01*
X0511237Y0390960D01*
X0511372Y0391044D01*
X0511508Y0391123D01*
X0511647Y0391200D01*
X0511788Y0391272D01*
X0511930Y0391342D01*
X0512074Y0391407D01*
X0512220Y0391469D01*
X0512367Y0391527D01*
X0512516Y0391582D01*
X0512666Y0391633D01*
X0512817Y0391680D01*
X0512969Y0391723D01*
X0513122Y0391762D01*
X0513277Y0391798D01*
X0513432Y0391829D01*
X0513588Y0391857D01*
X0513744Y0391881D01*
X0513901Y0391901D01*
X0514059Y0391917D01*
X0514216Y0391929D01*
X0514375Y0391937D01*
X0514533Y0391941D01*
X0514691Y0391941D01*
X0514849Y0391937D01*
X0515008Y0391929D01*
X0515165Y0391917D01*
X0515323Y0391901D01*
X0515480Y0391881D01*
X0515636Y0391857D01*
X0515792Y0391829D01*
X0515947Y0391798D01*
X0516102Y0391762D01*
X0516255Y0391723D01*
X0516407Y0391680D01*
X0516558Y0391633D01*
X0516708Y0391582D01*
X0516857Y0391527D01*
X0517004Y0391469D01*
X0517150Y0391407D01*
X0517294Y0391342D01*
X0517436Y0391272D01*
X0517577Y0391200D01*
X0517716Y0391123D01*
X0517852Y0391044D01*
X0517987Y0390960D01*
X0518120Y0390874D01*
X0518250Y0390784D01*
X0518378Y0390691D01*
X0518504Y0390595D01*
X0518627Y0390495D01*
X0518748Y0390393D01*
X0518866Y0390288D01*
X0518981Y0390179D01*
X0519094Y0390068D01*
X0519204Y0389954D01*
X0519311Y0389837D01*
X0519415Y0389718D01*
X0519516Y0389596D01*
X0519613Y0389471D01*
X0519708Y0389344D01*
X0519799Y0389215D01*
X0519888Y0389084D01*
X0519972Y0388950D01*
X0520054Y0388814D01*
X0520132Y0388677D01*
X0520206Y0388537D01*
X0520277Y0388395D01*
X0520345Y0388252D01*
X0520409Y0388107D01*
X0520469Y0387961D01*
X0520525Y0387813D01*
X0520578Y0387664D01*
X0520627Y0387513D01*
X0520672Y0387361D01*
X0520713Y0387208D01*
X0520751Y0387055D01*
X0520784Y0386900D01*
X0520814Y0386744D01*
X0520840Y0386588D01*
X0520861Y0386431D01*
X0520879Y0386274D01*
X0520893Y0386116D01*
X0520903Y0385958D01*
X0520909Y0385800D01*
X0520911Y0385642D01*
X0520909Y0385484D01*
X0520903Y0385326D01*
X0520893Y0385168D01*
X0520879Y0385010D01*
X0520861Y0384853D01*
X0520840Y0384696D01*
X0520814Y0384540D01*
X0520784Y0384384D01*
X0520751Y0384229D01*
X0520713Y0384076D01*
X0520672Y0383923D01*
X0520627Y0383771D01*
X0520578Y0383620D01*
X0520525Y0383471D01*
X0520469Y0383323D01*
X0520409Y0383177D01*
X0520345Y0383032D01*
X0520277Y0382889D01*
X0520206Y0382747D01*
X0520132Y0382607D01*
X0520054Y0382470D01*
X0519972Y0382334D01*
X0519888Y0382200D01*
X0519799Y0382069D01*
X0519708Y0381940D01*
X0519613Y0381813D01*
X0519516Y0381688D01*
X0519415Y0381566D01*
X0519311Y0381447D01*
X0519204Y0381330D01*
X0519094Y0381216D01*
X0518981Y0381105D01*
X0518866Y0380996D01*
X0518748Y0380891D01*
X0518627Y0380789D01*
X0518504Y0380689D01*
X0518378Y0380593D01*
X0518250Y0380500D01*
X0518120Y0380410D01*
X0517987Y0380324D01*
X0517852Y0380240D01*
X0517716Y0380161D01*
X0517577Y0380084D01*
X0517436Y0380012D01*
X0517294Y0379942D01*
X0517150Y0379877D01*
X0517004Y0379815D01*
X0516857Y0379757D01*
X0516708Y0379702D01*
X0516558Y0379651D01*
X0516407Y0379604D01*
X0516255Y0379561D01*
X0516102Y0379522D01*
X0515947Y0379486D01*
X0515792Y0379455D01*
X0515636Y0379427D01*
X0515480Y0379403D01*
X0515323Y0379383D01*
X0515165Y0379367D01*
X0515008Y0379355D01*
X0514849Y0379347D01*
X0514691Y0379343D01*
X0514533Y0379343D01*
X0514375Y0379347D01*
X0514216Y0379355D01*
X0514059Y0379367D01*
X0513901Y0379383D01*
X0513744Y0379403D01*
X0513588Y0379427D01*
X0513432Y0379455D01*
X0513277Y0379486D01*
X0513122Y0379522D01*
X0512969Y0379561D01*
X0512817Y0379604D01*
X0512666Y0379651D01*
X0512516Y0379702D01*
X0512367Y0379757D01*
X0512220Y0379815D01*
X0512074Y0379877D01*
X0511930Y0379942D01*
X0511788Y0380012D01*
X0511647Y0380084D01*
X0511508Y0380161D01*
X0511372Y0380240D01*
X0511237Y0380324D01*
X0511104Y0380410D01*
X0510974Y0380500D01*
X0510846Y0380593D01*
X0510720Y0380689D01*
X0510597Y0380789D01*
X0510476Y0380891D01*
X0510358Y0380996D01*
X0510243Y0381105D01*
X0510130Y0381216D01*
X0510020Y0381330D01*
X0509913Y0381447D01*
X0509809Y0381566D01*
X0509708Y0381688D01*
X0509611Y0381813D01*
X0509516Y0381940D01*
X0509425Y0382069D01*
X0509336Y0382200D01*
X0509252Y0382334D01*
X0509170Y0382470D01*
X0509092Y0382607D01*
X0509018Y0382747D01*
X0508947Y0382889D01*
X0508879Y0383032D01*
X0508815Y0383177D01*
X0508755Y0383323D01*
X0508699Y0383471D01*
X0508646Y0383620D01*
X0508597Y0383771D01*
X0508552Y0383923D01*
X0508511Y0384076D01*
X0508473Y0384229D01*
X0508440Y0384384D01*
X0508410Y0384540D01*
X0508384Y0384696D01*
X0508363Y0384853D01*
X0508345Y0385010D01*
X0508331Y0385168D01*
X0508321Y0385326D01*
X0508315Y0385484D01*
X0508313Y0385642D01*
X0012250Y0385642D02*
X0012252Y0385800D01*
X0012258Y0385958D01*
X0012268Y0386116D01*
X0012282Y0386274D01*
X0012300Y0386431D01*
X0012321Y0386588D01*
X0012347Y0386744D01*
X0012377Y0386900D01*
X0012410Y0387055D01*
X0012448Y0387208D01*
X0012489Y0387361D01*
X0012534Y0387513D01*
X0012583Y0387664D01*
X0012636Y0387813D01*
X0012692Y0387961D01*
X0012752Y0388107D01*
X0012816Y0388252D01*
X0012884Y0388395D01*
X0012955Y0388537D01*
X0013029Y0388677D01*
X0013107Y0388814D01*
X0013189Y0388950D01*
X0013273Y0389084D01*
X0013362Y0389215D01*
X0013453Y0389344D01*
X0013548Y0389471D01*
X0013645Y0389596D01*
X0013746Y0389718D01*
X0013850Y0389837D01*
X0013957Y0389954D01*
X0014067Y0390068D01*
X0014180Y0390179D01*
X0014295Y0390288D01*
X0014413Y0390393D01*
X0014534Y0390495D01*
X0014657Y0390595D01*
X0014783Y0390691D01*
X0014911Y0390784D01*
X0015041Y0390874D01*
X0015174Y0390960D01*
X0015309Y0391044D01*
X0015445Y0391123D01*
X0015584Y0391200D01*
X0015725Y0391272D01*
X0015867Y0391342D01*
X0016011Y0391407D01*
X0016157Y0391469D01*
X0016304Y0391527D01*
X0016453Y0391582D01*
X0016603Y0391633D01*
X0016754Y0391680D01*
X0016906Y0391723D01*
X0017059Y0391762D01*
X0017214Y0391798D01*
X0017369Y0391829D01*
X0017525Y0391857D01*
X0017681Y0391881D01*
X0017838Y0391901D01*
X0017996Y0391917D01*
X0018153Y0391929D01*
X0018312Y0391937D01*
X0018470Y0391941D01*
X0018628Y0391941D01*
X0018786Y0391937D01*
X0018945Y0391929D01*
X0019102Y0391917D01*
X0019260Y0391901D01*
X0019417Y0391881D01*
X0019573Y0391857D01*
X0019729Y0391829D01*
X0019884Y0391798D01*
X0020039Y0391762D01*
X0020192Y0391723D01*
X0020344Y0391680D01*
X0020495Y0391633D01*
X0020645Y0391582D01*
X0020794Y0391527D01*
X0020941Y0391469D01*
X0021087Y0391407D01*
X0021231Y0391342D01*
X0021373Y0391272D01*
X0021514Y0391200D01*
X0021653Y0391123D01*
X0021789Y0391044D01*
X0021924Y0390960D01*
X0022057Y0390874D01*
X0022187Y0390784D01*
X0022315Y0390691D01*
X0022441Y0390595D01*
X0022564Y0390495D01*
X0022685Y0390393D01*
X0022803Y0390288D01*
X0022918Y0390179D01*
X0023031Y0390068D01*
X0023141Y0389954D01*
X0023248Y0389837D01*
X0023352Y0389718D01*
X0023453Y0389596D01*
X0023550Y0389471D01*
X0023645Y0389344D01*
X0023736Y0389215D01*
X0023825Y0389084D01*
X0023909Y0388950D01*
X0023991Y0388814D01*
X0024069Y0388677D01*
X0024143Y0388537D01*
X0024214Y0388395D01*
X0024282Y0388252D01*
X0024346Y0388107D01*
X0024406Y0387961D01*
X0024462Y0387813D01*
X0024515Y0387664D01*
X0024564Y0387513D01*
X0024609Y0387361D01*
X0024650Y0387208D01*
X0024688Y0387055D01*
X0024721Y0386900D01*
X0024751Y0386744D01*
X0024777Y0386588D01*
X0024798Y0386431D01*
X0024816Y0386274D01*
X0024830Y0386116D01*
X0024840Y0385958D01*
X0024846Y0385800D01*
X0024848Y0385642D01*
X0024846Y0385484D01*
X0024840Y0385326D01*
X0024830Y0385168D01*
X0024816Y0385010D01*
X0024798Y0384853D01*
X0024777Y0384696D01*
X0024751Y0384540D01*
X0024721Y0384384D01*
X0024688Y0384229D01*
X0024650Y0384076D01*
X0024609Y0383923D01*
X0024564Y0383771D01*
X0024515Y0383620D01*
X0024462Y0383471D01*
X0024406Y0383323D01*
X0024346Y0383177D01*
X0024282Y0383032D01*
X0024214Y0382889D01*
X0024143Y0382747D01*
X0024069Y0382607D01*
X0023991Y0382470D01*
X0023909Y0382334D01*
X0023825Y0382200D01*
X0023736Y0382069D01*
X0023645Y0381940D01*
X0023550Y0381813D01*
X0023453Y0381688D01*
X0023352Y0381566D01*
X0023248Y0381447D01*
X0023141Y0381330D01*
X0023031Y0381216D01*
X0022918Y0381105D01*
X0022803Y0380996D01*
X0022685Y0380891D01*
X0022564Y0380789D01*
X0022441Y0380689D01*
X0022315Y0380593D01*
X0022187Y0380500D01*
X0022057Y0380410D01*
X0021924Y0380324D01*
X0021789Y0380240D01*
X0021653Y0380161D01*
X0021514Y0380084D01*
X0021373Y0380012D01*
X0021231Y0379942D01*
X0021087Y0379877D01*
X0020941Y0379815D01*
X0020794Y0379757D01*
X0020645Y0379702D01*
X0020495Y0379651D01*
X0020344Y0379604D01*
X0020192Y0379561D01*
X0020039Y0379522D01*
X0019884Y0379486D01*
X0019729Y0379455D01*
X0019573Y0379427D01*
X0019417Y0379403D01*
X0019260Y0379383D01*
X0019102Y0379367D01*
X0018945Y0379355D01*
X0018786Y0379347D01*
X0018628Y0379343D01*
X0018470Y0379343D01*
X0018312Y0379347D01*
X0018153Y0379355D01*
X0017996Y0379367D01*
X0017838Y0379383D01*
X0017681Y0379403D01*
X0017525Y0379427D01*
X0017369Y0379455D01*
X0017214Y0379486D01*
X0017059Y0379522D01*
X0016906Y0379561D01*
X0016754Y0379604D01*
X0016603Y0379651D01*
X0016453Y0379702D01*
X0016304Y0379757D01*
X0016157Y0379815D01*
X0016011Y0379877D01*
X0015867Y0379942D01*
X0015725Y0380012D01*
X0015584Y0380084D01*
X0015445Y0380161D01*
X0015309Y0380240D01*
X0015174Y0380324D01*
X0015041Y0380410D01*
X0014911Y0380500D01*
X0014783Y0380593D01*
X0014657Y0380689D01*
X0014534Y0380789D01*
X0014413Y0380891D01*
X0014295Y0380996D01*
X0014180Y0381105D01*
X0014067Y0381216D01*
X0013957Y0381330D01*
X0013850Y0381447D01*
X0013746Y0381566D01*
X0013645Y0381688D01*
X0013548Y0381813D01*
X0013453Y0381940D01*
X0013362Y0382069D01*
X0013273Y0382200D01*
X0013189Y0382334D01*
X0013107Y0382470D01*
X0013029Y0382607D01*
X0012955Y0382747D01*
X0012884Y0382889D01*
X0012816Y0383032D01*
X0012752Y0383177D01*
X0012692Y0383323D01*
X0012636Y0383471D01*
X0012583Y0383620D01*
X0012534Y0383771D01*
X0012489Y0383923D01*
X0012448Y0384076D01*
X0012410Y0384229D01*
X0012377Y0384384D01*
X0012347Y0384540D01*
X0012321Y0384696D01*
X0012300Y0384853D01*
X0012282Y0385010D01*
X0012268Y0385168D01*
X0012258Y0385326D01*
X0012252Y0385484D01*
X0012250Y0385642D01*
D12*
X0018549Y0385642D03*
X0420124Y0200602D03*
X0514612Y0200602D03*
X0514612Y0385642D03*
X0514612Y0015563D03*
X0018549Y0015563D03*
D13*
X0082526Y0176980D03*
X0096305Y0176980D03*
X0125833Y0176980D03*
X0139612Y0176980D03*
X0421108Y0015563D03*
X0434888Y0015563D03*
D14*
X0433510Y0031311D03*
X0422486Y0031311D03*
X0289809Y0141547D03*
X0278786Y0141547D03*
X0222880Y0141547D03*
X0211856Y0141547D03*
X0138234Y0161232D03*
X0127211Y0161232D03*
X0094927Y0161232D03*
X0083904Y0161232D03*
X0083904Y0188791D03*
X0094927Y0188791D03*
X0127211Y0188791D03*
X0138234Y0188791D03*
X0126423Y0362020D03*
X0115400Y0362020D03*
X0115400Y0373831D03*
X0126423Y0373831D03*
X0194140Y0373831D03*
X0205163Y0373831D03*
X0205163Y0362020D03*
X0194140Y0362020D03*
X0272880Y0362020D03*
X0283904Y0362020D03*
X0283904Y0373831D03*
X0272880Y0373831D03*
X0351620Y0373831D03*
X0362644Y0373831D03*
X0362644Y0362020D03*
X0351620Y0362020D03*
X0430360Y0362020D03*
X0441384Y0362020D03*
X0441384Y0373831D03*
X0430360Y0373831D03*
X0047683Y0375799D03*
X0036660Y0375799D03*
X0036660Y0362020D03*
X0047683Y0362020D03*
D15*
X0305163Y0182689D03*
X0305163Y0172689D03*
X0305163Y0162689D03*
X0305163Y0152689D03*
X0305163Y0142689D03*
X0305163Y0132689D03*
X0305163Y0122689D03*
X0305163Y0112689D03*
X0305163Y0102689D03*
X0305163Y0092689D03*
X0305163Y0082689D03*
X0305163Y0072689D03*
X0305163Y0062689D03*
X0305163Y0052689D03*
X0305163Y0042689D03*
X0405163Y0042689D03*
X0405163Y0052689D03*
X0405163Y0062689D03*
X0405163Y0072689D03*
X0405163Y0082689D03*
X0405163Y0092689D03*
X0405163Y0102689D03*
X0405163Y0112689D03*
X0405163Y0122689D03*
X0405163Y0132689D03*
X0405163Y0142689D03*
X0405163Y0152689D03*
X0405163Y0162689D03*
X0405163Y0172689D03*
X0405163Y0182689D03*
D16*
X0145321Y0145091D03*
X0145321Y0130130D03*
X0120124Y0130130D03*
X0102014Y0130130D03*
X0102014Y0145091D03*
X0120124Y0145091D03*
X0076817Y0145091D03*
X0076817Y0130130D03*
D17*
X0018549Y0130484D03*
X0018549Y0140484D03*
X0018549Y0150484D03*
X0018549Y0160484D03*
X0018549Y0177728D03*
X0018549Y0187728D03*
X0018549Y0197728D03*
X0018549Y0207728D03*
X0018549Y0113240D03*
X0018549Y0103240D03*
X0018549Y0093240D03*
X0018549Y0083240D03*
X0018549Y0065996D03*
X0018549Y0055996D03*
X0018549Y0045996D03*
X0018549Y0035996D03*
X0066541Y0381705D03*
X0076541Y0381705D03*
X0086541Y0381705D03*
X0096541Y0381705D03*
X0145282Y0381705D03*
X0155282Y0381705D03*
X0165282Y0381705D03*
X0175282Y0381705D03*
X0224022Y0381705D03*
X0234022Y0381705D03*
X0244022Y0381705D03*
X0254022Y0381705D03*
X0302762Y0381705D03*
X0312762Y0381705D03*
X0322762Y0381705D03*
X0332762Y0381705D03*
X0381502Y0381705D03*
X0391502Y0381705D03*
X0401502Y0381705D03*
X0411502Y0381705D03*
X0460242Y0381705D03*
X0470242Y0381705D03*
X0480242Y0381705D03*
X0490242Y0381705D03*
X0512644Y0156547D03*
X0512644Y0146547D03*
X0512644Y0136547D03*
X0512644Y0126547D03*
D18*
X0479179Y0310839D03*
X0400439Y0310839D03*
X0321699Y0310839D03*
X0242959Y0310839D03*
X0164219Y0310839D03*
X0085478Y0310839D03*
D19*
X0119691Y0320839D03*
X0119691Y0300839D03*
X0040951Y0300839D03*
X0040951Y0320839D03*
X0198431Y0320839D03*
X0198431Y0300839D03*
X0277171Y0300839D03*
X0277171Y0320839D03*
X0355912Y0320839D03*
X0355912Y0300839D03*
X0434652Y0300839D03*
X0434652Y0320839D03*
D20*
X0406502Y0263594D03*
X0485242Y0263594D03*
X0453746Y0169106D03*
X0453746Y0121862D03*
X0327762Y0263594D03*
X0249022Y0263594D03*
X0170282Y0263594D03*
X0091541Y0263594D03*
X0158256Y0180917D03*
X0168156Y0170917D03*
X0178056Y0180917D03*
X0178056Y0137610D03*
X0168156Y0127610D03*
X0158256Y0137610D03*
D21*
X0150282Y0263594D03*
X0229022Y0263594D03*
X0307762Y0263594D03*
X0386502Y0263594D03*
X0465242Y0263594D03*
X0433746Y0169106D03*
X0433746Y0121862D03*
X0071541Y0263594D03*
D22*
X0047171Y0276043D02*
X0047171Y0282643D01*
X0037171Y0282643D02*
X0037171Y0276043D01*
X0115912Y0276043D02*
X0115912Y0282643D01*
X0125912Y0282643D02*
X0125912Y0276043D01*
X0194652Y0276043D02*
X0194652Y0282643D01*
X0204652Y0282643D02*
X0204652Y0276043D01*
X0273392Y0276043D02*
X0273392Y0282643D01*
X0283392Y0282643D02*
X0283392Y0276043D01*
X0352132Y0276043D02*
X0352132Y0282643D01*
X0362132Y0282643D02*
X0362132Y0276043D01*
X0430872Y0276043D02*
X0430872Y0282643D01*
X0440872Y0282643D02*
X0440872Y0276043D01*
X0433267Y0063870D02*
X0426667Y0063870D01*
X0426667Y0053870D02*
X0433267Y0053870D01*
D23*
X0289809Y0157295D03*
X0278786Y0157295D03*
X0278786Y0173043D03*
X0289809Y0173043D03*
X0222880Y0173043D03*
X0211856Y0173043D03*
X0211856Y0157295D03*
X0222880Y0157295D03*
X0205163Y0338398D03*
X0194140Y0338398D03*
X0194140Y0350209D03*
X0205163Y0350209D03*
X0272880Y0350209D03*
X0283904Y0350209D03*
X0283904Y0338398D03*
X0272880Y0338398D03*
X0351620Y0338398D03*
X0362644Y0338398D03*
X0362644Y0350209D03*
X0351620Y0350209D03*
X0430360Y0350209D03*
X0441384Y0350209D03*
X0441384Y0338398D03*
X0430360Y0338398D03*
X0126423Y0338398D03*
X0115400Y0338398D03*
X0115400Y0350209D03*
X0126423Y0350209D03*
X0047683Y0350209D03*
X0036660Y0350209D03*
X0036660Y0338398D03*
X0047683Y0338398D03*
D24*
X0240597Y0164795D03*
X0240597Y0159795D03*
X0240597Y0154795D03*
X0240597Y0149795D03*
X0261069Y0149795D03*
X0261069Y0154795D03*
X0261069Y0159795D03*
X0261069Y0164795D03*
D25*
X0277329Y0191665D03*
X0287329Y0191665D03*
X0287329Y0201665D03*
X0277329Y0201665D03*
X0224337Y0201665D03*
X0214337Y0201665D03*
X0214337Y0191665D03*
X0224337Y0191665D03*
X0213864Y0119461D03*
X0213864Y0109461D03*
X0213864Y0099461D03*
X0213864Y0089461D03*
X0213864Y0079461D03*
X0213864Y0069461D03*
X0213864Y0059461D03*
X0213864Y0049461D03*
X0214337Y0024500D03*
X0224337Y0024500D03*
X0224337Y0014500D03*
X0214337Y0014500D03*
X0273392Y0014500D03*
X0283392Y0014500D03*
X0283392Y0024500D03*
X0273392Y0024500D03*
X0283864Y0049461D03*
X0283864Y0059461D03*
X0283864Y0069461D03*
X0283864Y0079461D03*
X0283864Y0089461D03*
X0283864Y0099461D03*
X0283864Y0109461D03*
X0283864Y0119461D03*
D26*
X0190793Y0069657D03*
X0190793Y0059657D03*
X0190793Y0049657D03*
X0145793Y0104657D03*
X0135793Y0104657D03*
X0070793Y0079657D03*
X0070793Y0069657D03*
X0070793Y0049657D03*
X0070793Y0039657D03*
D27*
X0075636Y0019500D03*
X0075636Y0098240D03*
X0185872Y0098240D03*
X0185872Y0019500D03*
D28*
X0453431Y0088044D02*
X0453431Y0095444D01*
X0473431Y0095444D02*
X0473431Y0088044D01*
D29*
X0463431Y0022744D03*
D30*
X0501825Y0041154D02*
X0509525Y0041154D01*
X0509525Y0060839D02*
X0501825Y0060839D01*
X0501825Y0084461D02*
X0509525Y0084461D01*
X0509525Y0104146D02*
X0501825Y0104146D01*
X0031336Y0226193D02*
X0023636Y0226193D01*
X0023636Y0245878D02*
X0031336Y0245878D01*
D31*
X0018549Y0263594D03*
X0038234Y0314776D03*
X0026423Y0350209D03*
X0046108Y0389579D03*
X0096541Y0350209D03*
X0097289Y0350209D03*
X0116975Y0377768D03*
X0175282Y0350209D03*
X0176030Y0350209D03*
X0193746Y0373831D03*
X0254022Y0350209D03*
X0272486Y0375799D03*
X0332762Y0350209D03*
X0333510Y0350209D03*
X0351226Y0375799D03*
X0411502Y0350209D03*
X0420124Y0350209D03*
X0429967Y0375799D03*
X0431935Y0314776D03*
X0353195Y0314776D03*
X0274455Y0314776D03*
X0195715Y0314776D03*
X0116975Y0314776D03*
X0118943Y0175012D03*
X0075636Y0175012D03*
D32*
X0110863Y0215502D03*
X0121363Y0226002D03*
X0200988Y0184877D03*
X0206238Y0164752D03*
X0249988Y0165627D03*
X0249988Y0149002D03*
X0206238Y0114877D03*
X0194863Y0120127D03*
X0221988Y0109627D03*
X0263113Y0079002D03*
X0257863Y0073752D03*
X0257863Y0050127D03*
X0263113Y0044877D03*
X0257863Y0027377D03*
X0214113Y0041377D03*
X0323488Y0052752D03*
X0423238Y0128002D03*
X0362863Y0148127D03*
X0352363Y0137627D03*
X0347113Y0132377D03*
X0347113Y0163877D03*
X0341863Y0169127D03*
X0336613Y0174377D03*
X0331363Y0179627D03*
X0370738Y0207627D03*
X0375988Y0191002D03*
X0327863Y0216377D03*
X0338363Y0253127D03*
X0320863Y0270627D03*
X0338363Y0285502D03*
X0300738Y0296002D03*
X0265738Y0279377D03*
X0242113Y0270627D03*
X0284988Y0253127D03*
X0187863Y0296877D03*
X0181738Y0336252D03*
X0156363Y0361627D03*
X0137988Y0361627D03*
X0102988Y0336252D03*
X0077613Y0361627D03*
X0059238Y0361627D03*
X0216738Y0361627D03*
X0235113Y0361627D03*
X0260488Y0336252D03*
X0295488Y0361627D03*
X0310363Y0357252D03*
X0331363Y0336252D03*
X0374238Y0361627D03*
X0469613Y0361627D03*
X0496738Y0342377D03*
X0412738Y0239127D03*
X0414488Y0232127D03*
X0026863Y0094752D03*
M02*
