%
M48
M72
T01C0.02362
T02C0.02500
T03C0.03150
T04C0.03200
T05C0.03543
T06C0.03600
T07C0.03937
T08C0.04000
T09C0.04400
T10C0.04700
T11C0.11024
T12C0.12598
T13C0.13000
%
T01
X75636Y175012
X118943Y175012
X18549Y263594
X38234Y314776
X26423Y350209
X46108Y389579
X96541Y350209
X97289Y350209
X116975Y377768
X175282Y350209
X176030Y350209
X193746Y373831
X254022Y350209
X272486Y375799
X332762Y350209
X333510Y350209
X351226Y375799
X411502Y350209
X420124Y350209
X429967Y375799
X431935Y314776
X353195Y314776
X274455Y314776
X195715Y314776
X116975Y314776
T02
X102988Y336252
X77613Y361627
X59238Y361627
X137988Y361627
X156363Y361627
X181738Y336252
X216738Y361627
X235113Y361627
X260488Y336252
X295488Y361627
X310363Y357252
X331363Y336252
X374238Y361627
X469613Y361627
X496738Y342377
X412738Y239127
X414488Y232127
X370738Y207627
X375988Y191002
X347113Y163877
X341863Y169127
X336613Y174377
X331363Y179627
X362863Y148127
X352363Y137627
X347113Y132377
X423238Y128002
X323488Y52752
X263113Y44877
X257863Y50127
X257863Y27377
X214113Y41377
X257863Y73752
X263113Y79002
X221988Y109627
X206238Y114877
X194863Y120127
X249988Y149002
X249988Y165627
X206238Y164752
X200988Y184877
X121363Y226002
X110863Y215502
X187863Y296877
X242113Y270627
X265738Y279377
X284988Y253127
X320863Y270627
X338363Y285502
X300738Y296002
X338363Y253127
X327863Y216377
X26863Y94752
T03
X213864Y99461
X213864Y89461
X213864Y79461
X213864Y69461
X213864Y59461
X213864Y49461
X283864Y49461
X283864Y59461
X283864Y69461
X283864Y79461
X283864Y89461
X283864Y99461
X283864Y109461
X283864Y119461
X213864Y119461
X213864Y109461
T04
X178056Y137610
X168156Y127610
X158256Y137610
X168156Y170917
X178056Y180917
X158256Y180917
X150282Y263594
X170282Y263594
X229022Y263594
X249022Y263594
X307762Y263594
X327762Y263594
X386502Y263594
X406502Y263594
X465242Y263594
X485242Y263594
X453746Y169106
X433746Y169106
X433746Y121862
X453746Y121862
X91541Y263594
X71541Y263594
T05
X305163Y182689
X305163Y172689
X305163Y162689
X305163Y152689
X305163Y142689
X305163Y132689
X305163Y122689
X305163Y112689
X305163Y102689
X305163Y92689
X305163Y82689
X305163Y72689
X305163Y62689
X305163Y52689
X305163Y42689
X405163Y42689
X405163Y52689
X405163Y62689
X405163Y72689
X405163Y82689
X405163Y92689
X405163Y102689
X405163Y112689
X405163Y122689
X405163Y132689
X405163Y142689
X405163Y152689
X405163Y162689
X405163Y172689
X405163Y182689
T06
X287329Y191665
X277329Y191665
X277329Y201665
X287329Y201665
X224337Y201665
X214337Y201665
X214337Y191665
X224337Y191665
X204652Y279343
X194652Y279343
X125912Y279343
X115912Y279343
X47171Y279343
X37171Y279343
X273392Y279343
X283392Y279343
X352132Y279343
X362132Y279343
X430872Y279343
X440872Y279343
X429967Y63870
X429967Y53870
X283392Y24500
X273392Y24500
X273392Y14500
X283392Y14500
X224337Y14500
X214337Y14500
X214337Y24500
X224337Y24500
T07
X190793Y49657
X190793Y59657
X190793Y69657
X145793Y104657
X135793Y104657
X70793Y79657
X70793Y69657
X70793Y49657
X70793Y39657
T08
X18549Y35996
X18549Y45996
X18549Y55996
X18549Y65996
X18549Y83240
X18549Y93240
X18549Y103240
X18549Y113240
X18549Y130484
X18549Y140484
X18549Y150484
X18549Y160484
X18549Y177728
X18549Y187728
X18549Y197728
X18549Y207728
X66541Y381705
X76541Y381705
X86541Y381705
X96541Y381705
X145282Y381705
X155282Y381705
X165282Y381705
X175282Y381705
X224022Y381705
X234022Y381705
X244022Y381705
X254022Y381705
X302762Y381705
X312762Y381705
X322762Y381705
X332762Y381705
X381502Y381705
X391502Y381705
X401502Y381705
X411502Y381705
X460242Y381705
X470242Y381705
X480242Y381705
X490242Y381705
X512644Y156547
X512644Y146547
X512644Y136547
X512644Y126547
T09
X473431Y91744
X453431Y91744
T10
X505675Y84461
X505675Y104146
X505675Y60839
X505675Y41154
X27486Y226193
X27486Y245878
T11
X75636Y98240
X75636Y19500
X185872Y19500
X185872Y98240
T12
X18549Y15563
X420124Y200602
X514612Y200602
X514612Y385642
X514612Y15563
X18549Y385642
T13
X463431Y22744
M30
