%
M48
M72
T01C0.02362
T02C0.02500
T03C0.03150
T04C0.03543
T05C0.04000
T06C0.04400
T07C0.04724
T08C0.06299
T09C0.12598
T10C0.15748
%
T01
X87398Y40429
X343304Y56177
X384642Y60114
X404327Y60114
X414170Y56177
X414170Y73894
X343304Y73894
X485036Y67988
X500784Y64051
X512595Y67988
X496847Y56177
X500784Y48303
X571650Y66020
X599209Y71925
X658264Y69957
X685823Y71925
X744879Y69957
X772438Y71925
X831493Y67988
X857083Y69957
X843304Y48303
X916138Y66020
X939760Y67988
X929918Y48303
X941729Y93579
X916138Y101453
X859052Y103421
X829524Y105390
X770469Y105390
X744879Y105390
X685823Y103421
X658264Y103421
X599209Y103421
X571650Y103421
X512595Y99484
X508658Y107358
X488973Y107358
X488973Y99484
X583461Y48303
X670075Y48303
X756690Y48303
T02
X853146Y38461
X870863Y107358
X861020Y117201
X803934Y115232
X776375Y111295
X772438Y117201
X683855Y136886
X658264Y142791
X611020Y160508
X618894Y170350
X573619Y160508
X593304Y150665
X557871Y142791
X573619Y136886
X534249Y148697
X544091Y154602
X492910Y142791
X479131Y156571
X473225Y168382
X465351Y178224
X500784Y178224
X512595Y195941
X569682Y186098
X561808Y172319
X441729Y160508
X441729Y152634
X418107Y123106
X441729Y119169
X469288Y119169
X514564Y115232
X546060Y107358
X599209Y117201
X632674Y107358
X439760Y201846
X439760Y211689
X439760Y219563
X431886Y227437
X467320Y233343
X500784Y235311
X380705Y223500
X488973Y276650
X429918Y284524
X317713Y129012
T03
X534406Y222280
X534406Y232280
X534406Y242280
X534406Y252280
X714406Y207280
X714406Y197280
T04
X424800Y198579
X424800Y208579
X424800Y218579
X424800Y228579
X424800Y238579
X424800Y248579
X424800Y258579
X424800Y268579
X324800Y268579
X324800Y258579
X324800Y248579
X324800Y238579
X324800Y228579
X324800Y218579
X324800Y208579
X324800Y198579
X324800Y188579
X324800Y178579
X324800Y168579
X324800Y158579
X324800Y148579
X324800Y138579
X324800Y128579
X424800Y128579
X424800Y138579
X424800Y148579
X424800Y158579
X424800Y168579
X424800Y178579
X424800Y188579
T05
X461414Y243028
X461414Y263028
X744879Y216846
X744879Y206846
X744879Y196846
X744879Y186846
X744879Y169602
X744879Y159602
X744879Y149602
X744879Y139602
X756690Y97673
X756690Y77673
X744131Y48303
X734131Y48303
X724131Y48303
X714131Y48303
X657516Y48303
X647516Y48303
X637516Y48303
X627516Y48303
X570902Y48303
X560902Y48303
X550902Y48303
X540902Y48303
X484288Y48303
X474288Y48303
X464288Y48303
X454288Y48303
X425233Y48303
X415233Y48303
X405233Y48303
X395233Y48303
X354367Y48303
X344367Y48303
X334367Y48303
X324367Y48303
X496847Y77673
X496847Y97673
X583461Y97673
X583461Y77673
X670075Y77673
X670075Y97673
X800745Y48303
X810745Y48303
X820745Y48303
X830745Y48303
X887359Y48303
X897359Y48303
X907359Y48303
X917359Y48303
X929918Y77673
X929918Y97673
X843304Y97673
X843304Y77673
X141768Y48303
X131768Y48303
X121768Y48303
X111768Y48303
X69839Y166413
X49839Y166413
X49839Y213657
X69839Y213657
T06
X87713Y56177
X47713Y56177
T07
X59839Y105390
X59839Y119169
T08
X51965Y79799
X71650Y79799
X71650Y253028
X51965Y253028
T09
X48028Y288461
X67713Y288461
X87398Y288461
X107083Y288461
X193698Y288461
X280312Y288461
X441729Y288461
X506690Y288461
X528343Y280587
X685823Y280587
X709446Y288461
X729131Y288461
X748816Y288461
X685823Y193972
X528343Y193972
X945666Y123106
X945666Y44366
X276375Y44366
X193698Y44366
T10
X237005Y52240
X114957Y83736
X114957Y249091
X237005Y280587
M30
